<?xml version="1.0" encoding="UTF-8" standalone="no"?>
<svg
   xmlns:dc="http://purl.org/dc/elements/1.1/"
   xmlns:cc="http://creativecommons.org/ns#"
   xmlns:rdf="http://www.w3.org/1999/02/22-rdf-syntax-ns#"
   xmlns:svg="http://www.w3.org/2000/svg"
   xmlns="http://www.w3.org/2000/svg"
   xmlns:sodipodi="http://sodipodi.sourceforge.net/DTD/sodipodi-0.dtd"
   xmlns:inkscape="http://www.inkscape.org/namespaces/inkscape"
   height="151.05583mm"
   width="126.93376mm"
   version="1.1"
   id="Layer_1"
   x="0px"
   y="0px"
   viewBox="0 0 479.74965 570.91971"
   xml:space="preserve"
   sodipodi:docname="allegatoDefault.svg"
   inkscape:version="1.0 (4035a4fb49, 2020-05-01)"
   inkscape:export-filename="C:\Users\etamburini\Desktop\icone Barlo\doc.png"
   inkscape:export-xdpi="96"
   inkscape:export-ydpi="96"><metadata
   id="metadata13"><rdf:RDF><cc:Work
       rdf:about=""><dc:format>image/svg+xml</dc:format><dc:type
         rdf:resource="http://purl.org/dc/dcmitype/StillImage" /><dc:title>text-glyph</dc:title></cc:Work></rdf:RDF></metadata><defs
   id="defs11" /><sodipodi:namedview
   inkscape:document-rotation="0"
   pagecolor="#ffffff"
   bordercolor="#666666"
   borderopacity="1"
   objecttolerance="10"
   gridtolerance="10"
   guidetolerance="10"
   inkscape:pageopacity="0"
   inkscape:pageshadow="2"
   inkscape:window-width="1920"
   inkscape:window-height="1017"
   id="namedview9"
   showgrid="false"
   inkscape:zoom="1.0507812"
   inkscape:cx="272.87812"
   inkscape:cy="294.06692"
   inkscape:window-x="-8"
   inkscape:window-y="-8"
   inkscape:window-maximized="1"
   inkscape:current-layer="Layer_1"
   units="mm" />
<style
   type="text/css"
   id="style2">
	.st0{fill:#941212;}
</style>
<title
   id="title4">text-glyph</title>
<path
   class="st0"
   d="M 256.1,0 H 64 C 28.7,0 0,28.7 0,64 v 384 c 0,35.3 28.7,64 64,64 h 281.6 c 35.3,0 64,-28.7 64,-64 V 153.6 Z M 115.2,268.8 H 192 c 7.1,0 12.8,5.7 12.8,12.8 0,7.1 -5.7,12.8 -12.8,12.8 h -76.8 c -7.1,0 -12.8,-5.7 -12.8,-12.8 0,-7.1 5.7,-12.8 12.8,-12.8 z m 179.2,128 H 115.2 c -7.1,0 -12.8,-5.7 -12.8,-12.8 0,-7.1 5.7,-12.8 12.8,-12.8 h 179.2 c 7.1,0 12.8,5.7 12.8,12.8 0,7.1 -5.7,12.8 -12.8,12.8 z m 0,-51.2 H 115.2 c -7.1,0 -12.8,-5.7 -12.8,-12.8 0,-7.1 5.7,-12.8 12.8,-12.8 h 179.2 c 7.1,0 12.8,5.7 12.8,12.8 0,7.1 -5.7,12.8 -12.8,12.8 z m 12.8,-179.2 c -35.3,0 -64,-28.7 -64,-64 V 25.6 L 384,166.4 Z"
   id="path6"
   style="fill:#ff7211;fill-opacity:1" />
<path
   id="path854"
   d="m 291.16502,163.66998 c -17.72615,-4.64423 -32.6452,-16.99559 -41.09089,-34.01882 -5.80758,-11.70581 -6.00594,-13.3993 -6.43579,-54.944845 -0.21662,-20.936804 -0.25714,-40.320155 -0.09,-43.074114 l 0.30381,-5.007197 69.46967,69.483036 69.46968,69.48304 -42.347,-0.0524 c -38.51134,-0.0477 -42.97492,-0.21691 -49.27943,-1.8687 z"
   style="fill:#aa0000;fill-opacity:1;stroke:#ffffff;stroke-width:0.999999;paint-order:fill markers stroke" /><path
   id="path856"
   d="m 111.09421,292.99776 c -6.31054,-2.51635 -9.70261,-9.64325 -7.28799,-15.3124 0.73269,-1.72025 2.49213,-4.19837 3.90987,-5.50692 l 2.5777,-2.37918 41.75962,-0.26662 c 34.7251,-0.2217 42.31467,-0.0347 45.05458,1.11011 9.03111,3.77344 9.35279,16.95311 0.52929,21.68521 -3.0001,1.60897 -6.26697,1.73445 -43.70343,1.67864 -24.50819,-0.0365 -41.3988,-0.4343 -42.83964,-1.00884 z"
   style="fill:#ffffff;fill-opacity:1;stroke:#ffffff;stroke-width:0.999999;paint-order:fill markers stroke" /><path
   id="path858"
   d="m 296.97527,163.63211 c -12.15692,-1.58344 -24.88623,-8.44777 -34.41769,-18.55987 -7.16444,-7.60088 -11.621,-14.60253 -14.54208,-22.84685 -2.52511,-7.12676 -3.85861,-33.494898 -3.47418,-68.69717 l 0.26245,-24.033113 67.56626,67.572148 67.56627,67.572145 -38.54024,-0.12067 c -21.19714,-0.0663 -41.18649,-0.46536 -44.42079,-0.88662 z"
   style="fill:#ffffff;fill-opacity:1;stroke:#ffffff;stroke-width:0.999999;paint-order:fill markers stroke" /><path
   id="path860"
   d="m 109.0932,291.9131 c -1.77852,-1.18461 -4.03837,-3.79595 -5.02189,-5.803 -1.51498,-3.09158 -1.6231,-4.20029 -0.70758,-7.25602 0.59436,-1.98377 2.44392,-4.93971 4.11015,-6.56875 l 3.0295,-2.96191 42.4067,0.004 c 40.38098,0.003 42.55224,0.0923 45.45343,1.86126 5.96551,3.63738 7.60846,11.68321 3.62666,17.76023 -3.25529,4.96818 -4.68953,5.11845 -48.85153,5.11845 -40.80684,0 -40.81216,-2.6e-4 -44.04544,-2.15382 z"
   style="fill:#ffffff;fill-opacity:1;stroke:#ffffff;stroke-width:0.999999;paint-order:fill markers stroke" /><path
   id="path862"
   d="m 111.6831,344.48228 c -9.76877,-2.95858 -11.62886,-16.51281 -2.99812,-21.8469 3.06357,-1.89339 4.47543,-1.92162 96.11402,-1.92162 84.38801,0 93.24891,0.14421 95.63973,1.5565 7.78213,4.59702 7.94774,16.02386 0.30483,21.03248 -2.39809,1.57154 -8.42591,1.68925 -94.44029,1.84425 -50.53328,0.0911 -93.11236,-0.20805 -94.62017,-0.66471 z"
   style="fill:#ffffff;fill-opacity:1;stroke:#ffffff;stroke-width:0.999999;paint-order:fill markers stroke" /><path
   id="path864"
   d="m 109.08881,394.47135 c -7.95996,-4.32646 -7.8434,-16.83124 0.19563,-20.98838 4.00373,-2.07041 187.0944,-2.07041 191.09813,0 5.63299,2.91293 7.65098,10.37095 4.47039,16.52153 -3.21703,6.22105 2.35966,5.89531 -100.21011,5.85332 -78.44964,-0.0321 -93.46306,-0.24996 -95.55404,-1.38647 z"
   style="fill:#ffffff;fill-opacity:1;stroke:#ffffff;stroke-width:0.999999;paint-order:fill markers stroke" /></svg>
