<?xml version="1.0" encoding="UTF-8" standalone="no"?>
<svg
   xmlns:dc="http://purl.org/dc/elements/1.1/"
   xmlns:cc="http://creativecommons.org/ns#"
   xmlns:rdf="http://www.w3.org/1999/02/22-rdf-syntax-ns#"
   xmlns:svg="http://www.w3.org/2000/svg"
   xmlns="http://www.w3.org/2000/svg"
   xmlns:sodipodi="http://sodipodi.sourceforge.net/DTD/sodipodi-0.dtd"
   xmlns:inkscape="http://www.inkscape.org/namespaces/inkscape"
   height="151.05594mm"
   width="126.93381mm"
   inkscape:export-ydpi="96"
   inkscape:export-xdpi="96"
   inkscape:export-filename="C:\Users\etamburini\Desktop\icone Barlo\audio_letto.png"
   version="1.1"
   id="Layer_1"
   x="0px"
   y="0px"
   viewBox="0 0 479.74983 570.9201"
   xml:space="preserve"
   sodipodi:docname="audio_seen.svg"
   inkscape:version="1.0 (4035a4fb49, 2020-05-01)"><metadata
   id="metadata13"><rdf:RDF><cc:Work
       rdf:about=""><dc:format>image/svg+xml</dc:format><dc:type
         rdf:resource="http://purl.org/dc/dcmitype/StillImage" /><dc:title>audio-glyph</dc:title></cc:Work></rdf:RDF></metadata><defs
   id="defs11" /><sodipodi:namedview
   units="mm"
   inkscape:document-rotation="0"
   pagecolor="#ffffff"
   bordercolor="#666666"
   borderopacity="1"
   objecttolerance="10"
   gridtolerance="10"
   guidetolerance="10"
   inkscape:pageopacity="0"
   inkscape:pageshadow="2"
   inkscape:window-width="1920"
   inkscape:window-height="1017"
   id="namedview9"
   showgrid="false"
   inkscape:zoom="1.0507812"
   inkscape:cx="257.14197"
   inkscape:cy="363.9899"
   inkscape:window-x="-8"
   inkscape:window-y="-8"
   inkscape:window-maximized="1"
   inkscape:current-layer="Layer_1" />
<style
   type="text/css"
   id="style2">
	.st0{fill:#002620;}
</style>
<title
   id="title4">audio-glyph</title>
<path
   class="st0"
   d="m 153.6,384 c 0,7.1 -5.7,12.8 -12.8,12.8 -7.1,0 -12.8,-5.7 -12.8,-12.8 0,-7.1 5.7,-12.8 12.8,-12.8 0,0 0,0 0,0 7.1,0 12.8,5.7 12.8,12.8 z m 89.6,-25.6 c -7.1,0 -12.8,5.7 -12.8,12.8 0,7.1 5.7,12.8 12.8,12.8 7.1,0 12.8,-5.7 12.8,-12.8 v 0 c 0,-7.1 -5.7,-12.8 -12.8,-12.8 z m -64,-65.7 76.8,-9.6 v -12.6 l -76.8,9.6 z M 409.6,153.6 V 448 c 0,35.3 -28.7,64 -64,64 H 64 C 28.7,512 0,483.3 0,448 V 64 C 0,28.7 28.7,0 64,0 H 256.1 Z M 281.6,256 c 0,-0.3 -0.1,-0.5 -0.1,-0.8 0,-0.3 0,-0.5 0,-0.8 0,-0.3 -0.1,-0.3 -0.1,-0.5 -0.1,-0.5 -0.2,-0.9 -0.3,-1.4 -0.1,-0.4 -0.2,-0.7 -0.3,-1.1 -0.2,-0.4 -0.4,-0.8 -0.6,-1.2 -0.2,-0.3 -0.3,-0.7 -0.5,-1 -0.2,-0.4 -0.5,-0.7 -0.8,-1.1 -0.2,-0.3 -0.5,-0.6 -0.7,-0.9 -0.3,-0.3 -0.6,-0.6 -0.9,-0.9 -0.3,-0.3 -0.6,-0.5 -0.9,-0.8 -0.3,-0.3 -0.6,-0.4 -1,-0.6 -0.4,-0.2 -0.8,-0.4 -1.2,-0.6 -0.3,-0.1 -0.6,-0.3 -0.9,-0.4 -0.5,-0.2 -1,-0.3 -1.5,-0.4 -0.3,-0.1 -0.6,-0.1 -0.9,-0.2 -0.5,-0.1 -1.1,-0.1 -1.6,-0.2 -0.1,0 -0.3,0 -0.4,0 -0.1,0 -0.5,0.1 -0.7,0.1 -0.2,0 -0.6,0 -0.9,0 l -102.5,12.9 c -0.2,0 -0.3,0.1 -0.5,0.1 -0.4,0.1 -0.9,0.2 -1.3,0.3 -0.4,0.1 -0.8,0.2 -1.1,0.4 -0.4,0.2 -0.8,0.3 -1.2,0.5 -0.4,0.2 -0.7,0.4 -1.1,0.6 -0.4,0.2 -0.7,0.5 -1,0.7 -0.3,0.2 -0.6,0.5 -0.9,0.8 -0.3,0.3 -0.6,0.6 -0.9,0.9 -0.3,0.3 -0.5,0.6 -0.8,0.9 -0.2,0.3 -0.5,0.7 -0.7,1.1 -0.2,0.3 -0.4,0.7 -0.6,1 -0.2,0.4 -0.3,0.8 -0.5,1.2 -0.1,0.4 -0.3,0.8 -0.4,1.2 -0.1,0.4 -0.2,0.8 -0.2,1.2 -0.1,0.4 -0.1,0.9 -0.1,1.3 0,0.2 -0.1,0.3 -0.1,0.5 v 79 c -20,-7.1 -41.9,3.4 -49,23.4 -7.1,20 3.4,41.9 23.4,49 20,7.1 41.9,-3.4 49,-23.4 1.4,-4.1 2.2,-8.4 2.2,-12.7 v -65.5 l 76.8,-9.6 v 26 c -20,-7.1 -41.9,3.4 -49,23.4 -7.1,20 3.4,41.9 23.4,49 20,7.1 41.9,-3.4 49,-23.4 1.5,-4.1 2.2,-8.4 2.2,-12.8 z M 384,166.4 243.2,25.6 v 76.8 c 0,35.3 28.7,64 64,64 z"
   id="path6"
   style="fill:#9330ff;fill-opacity:1" />
<path
   d="m 382.287,385.99445 c -48.2375,0 -87.46283,39.22766 -87.46283,87.46283 0,48.2375 39.22533,87.46283 87.46283,87.46283 48.2375,0 87.46283,-39.22533 87.46283,-87.46283 0,-48.23517 -39.22533,-87.46283 -87.46283,-87.46283 z"
   style="clip-rule:evenodd;fill:#af65ff;fill-opacity:1;fill-rule:evenodd;stroke:#ffffff;stroke-width:20;stroke-linejoin:round;stroke-miterlimit:1.41421;stroke-dasharray:none;stroke-opacity:1"
   id="path2" /><g
   transform="matrix(2.3323421,0,0,2.3323421,265.11713,327.15179)"
   style="clip-rule:evenodd;fill:#ffffff;fill-opacity:1;fill-rule:evenodd;stroke-width:8.57507;stroke-linejoin:round;stroke-miterlimit:1.41421;stroke-dasharray:none"
   id="g6"><path
     d="m 66.637,48.229 -20.8,19.8 -11.9,-11.9 -5.7,5.6 14.7,14.7 c 0.8,0.8 1.8,1.2 2.8,1.2 1,0 2,-0.4 2.8,-1.1 l 23.7,-22.5 z"
     style="fill:#ffffff;fill-opacity:1;fill-rule:nonzero;stroke-width:8.57507;stroke-miterlimit:1.41421;stroke-dasharray:none"
     id="path4" /></g><path
   id="path835"
   d="m 296.88705,165.05904 c -13.4334,-2.26197 -24.22063,-8.0317 -34.65661,-18.53668 -6.13498,-6.17553 -8.58115,-9.50872 -11.68625,-15.92385 -6.51047,-13.45061 -6.77974,-16.0435 -6.49784,-62.569294 l 0.24804,-40.937066 69.46967,69.474893 69.46968,69.474897 -40.91949,-0.11194 c -22.50572,-0.0616 -42.94796,-0.45349 -45.4272,-0.87096 z"
   style="fill:#ffffff;stroke:#ffffff;stroke-width:0.999999;paint-order:fill markers stroke" /><path
   id="path837"
   d="m 132.10903,421.0439 c -10.60562,-2.66345 -21.41926,-11.62297 -26.1117,-21.63457 -2.25882,-4.81934 -2.55053,-6.58463 -2.55053,-15.4343 0,-9.32633 0.20458,-10.41065 3.06848,-16.26325 3.82734,-7.8215 10.55478,-14.26892 19.02395,-18.23212 5.27003,-2.46615 7.55277,-2.97731 13.53596,-3.03106 3.95829,-0.0356 8.78169,0.27198 10.71867,0.68341 l 3.52179,0.74807 0.2849,-41.36367 c 0.27672,-40.17454 0.34184,-41.44086 2.26536,-44.04918 3.88008,-5.26143 5.74883,-5.652 58.45078,-12.21614 27.47955,-3.42264 51.53018,-6.27944 53.44585,-6.34845 4.93627,-0.17783 9.03486,1.79753 11.28554,5.43921 1.90589,3.08378 1.93347,4.18351 1.67384,66.74305 l -0.26396,63.6076 -2.22196,5.50503 c -3.11148,7.70888 -11.01819,15.99626 -19.01966,19.93538 -5.92042,2.9146 -6.94528,3.10978 -16.32945,3.10978 -8.87138,0 -10.6328,-0.2907 -15.45431,-2.55054 -15.12198,-7.08767 -24.55948,-24.30444 -21.82675,-39.81839 2.67714,-15.19839 12.19684,-26.23411 26.66616,-30.91279 5.15615,-1.66726 18.3296,-1.68005 22.25288,-0.0216 1.54068,0.65127 1.66543,-0.30155 1.66543,-12.72124 0,-11.64755 -0.20075,-13.42524 -1.51605,-13.42524 -1.7491,0 -68.80305,8.28424 -73.38732,9.0667 l -3.05207,0.52094 -0.27879,37.81617 -0.27879,37.81616 -3.08464,6.26318 c -6.01629,12.21574 -18.56161,20.61608 -31.84776,21.32524 -3.81766,0.20377 -8.60379,-0.047 -10.63585,-0.55736 z m 14.57123,-25.41235 c 4.89239,-2.4947 7.09539,-6.07782 7.09539,-11.5405 0,-10.49466 -10.21271,-16.585 -19.27249,-11.49312 -14.79841,8.31718 -2.94248,30.74327 12.1771,23.03362 z m 104.16651,-13.6439 c 7.63597,-6.00645 6.86309,-18.04958 -1.4337,-22.34001 -2.11517,-1.0938 -4.49695,-1.44107 -7.74388,-1.12908 -12.26258,1.17828 -15.83848,16.70243 -5.49019,23.83472 3.44164,2.37206 11.44086,2.17266 14.66777,-0.36563 z m 5.34353,-105.35849 c 0,-6.19153 -0.1888,-6.93095 -1.66543,-6.52279 -0.91599,0.25319 -18.26022,2.49905 -38.54275,4.99079 l -36.87733,4.53044 v 6.78076 6.78076 l 38.54275,-4.78841 38.54276,-4.7884 z"
   style="fill:#ffffff;stroke:#ffffff;stroke-width:0.999999;paint-order:fill markers stroke" /></svg>
