<?xml version="1.0" encoding="UTF-8" standalone="no"?>
<svg
   xmlns:dc="http://purl.org/dc/elements/1.1/"
   xmlns:cc="http://creativecommons.org/ns#"
   xmlns:rdf="http://www.w3.org/1999/02/22-rdf-syntax-ns#"
   xmlns:svg="http://www.w3.org/2000/svg"
   xmlns="http://www.w3.org/2000/svg"
   xmlns:sodipodi="http://sodipodi.sourceforge.net/DTD/sodipodi-0.dtd"
   xmlns:inkscape="http://www.inkscape.org/namespaces/inkscape"
   inkscape:export-ydpi="96"
   inkscape:export-xdpi="96"
   inkscape:export-filename="C:\Users\etamburini\Desktop\icone Barlo\audio.png"
   version="1.1"
   id="Layer_1"
   x="0px"
   y="0px"
   viewBox="0 0 479.74983 570.92011"
   xml:space="preserve"
   sodipodi:docname="audio.svg"
   inkscape:version="1.0 (4035a4fb49, 2020-05-01)"
   width="126.93381mm"
   height="151.05594mm"><metadata
   id="metadata13"><rdf:RDF><cc:Work
       rdf:about=""><dc:format>image/svg+xml</dc:format><dc:type
         rdf:resource="http://purl.org/dc/dcmitype/StillImage" /><dc:title>audio-glyph</dc:title></cc:Work></rdf:RDF></metadata><defs
   id="defs11" /><sodipodi:namedview
   inkscape:document-rotation="0"
   pagecolor="#ffffff"
   bordercolor="#666666"
   borderopacity="1"
   objecttolerance="10"
   gridtolerance="10"
   guidetolerance="10"
   inkscape:pageopacity="0"
   inkscape:pageshadow="2"
   inkscape:window-width="1920"
   inkscape:window-height="1017"
   id="namedview9"
   showgrid="false"
   inkscape:zoom="1.0507812"
   inkscape:cx="204.8"
   inkscape:cy="217.93308"
   inkscape:window-x="-8"
   inkscape:window-y="-8"
   inkscape:window-maximized="1"
   inkscape:current-layer="Layer_1"
   units="mm"
   height="151.05594mm" />
<style
   type="text/css"
   id="style2">
	.st0{fill:#002620;}
</style>
<title
   id="title4">audio-glyph</title>
<path
   class="st0"
   d="m 153.6,384 c 0,7.1 -5.7,12.8 -12.8,12.8 -7.1,0 -12.8,-5.7 -12.8,-12.8 0,-7.1 5.7,-12.8 12.8,-12.8 0,0 0,0 0,0 7.1,0 12.8,5.7 12.8,12.8 z m 89.6,-25.6 c -7.1,0 -12.8,5.7 -12.8,12.8 0,7.1 5.7,12.8 12.8,12.8 7.1,0 12.8,-5.7 12.8,-12.8 v 0 c 0,-7.1 -5.7,-12.8 -12.8,-12.8 z m -64,-65.7 76.8,-9.6 v -12.6 l -76.8,9.6 z M 409.6,153.6 V 448 c 0,35.3 -28.7,64 -64,64 H 64 C 28.7,512 0,483.3 0,448 V 64 C 0,28.7 28.7,0 64,0 H 256.1 Z M 281.6,256 c 0,-0.3 -0.1,-0.5 -0.1,-0.8 0,-0.3 0,-0.5 0,-0.8 0,-0.3 -0.1,-0.3 -0.1,-0.5 -0.1,-0.5 -0.2,-0.9 -0.3,-1.4 -0.1,-0.4 -0.2,-0.7 -0.3,-1.1 -0.2,-0.4 -0.4,-0.8 -0.6,-1.2 -0.2,-0.3 -0.3,-0.7 -0.5,-1 -0.2,-0.4 -0.5,-0.7 -0.8,-1.1 -0.2,-0.3 -0.5,-0.6 -0.7,-0.9 -0.3,-0.3 -0.6,-0.6 -0.9,-0.9 -0.3,-0.3 -0.6,-0.5 -0.9,-0.8 -0.3,-0.3 -0.6,-0.4 -1,-0.6 -0.4,-0.2 -0.8,-0.4 -1.2,-0.6 -0.3,-0.1 -0.6,-0.3 -0.9,-0.4 -0.5,-0.2 -1,-0.3 -1.5,-0.4 -0.3,-0.1 -0.6,-0.1 -0.9,-0.2 -0.5,-0.1 -1.1,-0.1 -1.6,-0.2 -0.1,0 -0.3,0 -0.4,0 -0.1,0 -0.5,0.1 -0.7,0.1 -0.2,0 -0.6,0 -0.9,0 l -102.5,12.9 c -0.2,0 -0.3,0.1 -0.5,0.1 -0.4,0.1 -0.9,0.2 -1.3,0.3 -0.4,0.1 -0.8,0.2 -1.1,0.4 -0.4,0.2 -0.8,0.3 -1.2,0.5 -0.4,0.2 -0.7,0.4 -1.1,0.6 -0.4,0.2 -0.7,0.5 -1,0.7 -0.3,0.2 -0.6,0.5 -0.9,0.8 -0.3,0.3 -0.6,0.6 -0.9,0.9 -0.3,0.3 -0.5,0.6 -0.8,0.9 -0.2,0.3 -0.5,0.7 -0.7,1.1 -0.2,0.3 -0.4,0.7 -0.6,1 -0.2,0.4 -0.3,0.8 -0.5,1.2 -0.1,0.4 -0.3,0.8 -0.4,1.2 -0.1,0.4 -0.2,0.8 -0.2,1.2 -0.1,0.4 -0.1,0.9 -0.1,1.3 0,0.2 -0.1,0.3 -0.1,0.5 v 79 c -20,-7.1 -41.9,3.4 -49,23.4 -7.1,20 3.4,41.9 23.4,49 20,7.1 41.9,-3.4 49,-23.4 1.4,-4.1 2.2,-8.4 2.2,-12.7 v -65.5 l 76.8,-9.6 v 26 c -20,-7.1 -41.9,3.4 -49,23.4 -7.1,20 3.4,41.9 23.4,49 20,7.1 41.9,-3.4 49,-23.4 1.5,-4.1 2.2,-8.4 2.2,-12.8 z M 384,166.4 243.2,25.6 v 76.8 c 0,35.3 28.7,64 64,64 z"
   id="path6"
   style="fill:#9330ff;fill-opacity:1" />
<path
   id="path834"
   d="m 130.09368,420.2567 c -10.91208,-3.4601 -18.86591,-10.31548 -23.62586,-20.36308 -2.76701,-5.84077 -3.02098,-7.17697 -3.02098,-15.89361 0,-8.71665 0.25397,-10.05285 3.02098,-15.89362 3.84346,-8.11302 10.08763,-14.35718 18.20064,-18.20064 5.77117,-2.73404 7.23565,-3.02099 15.41778,-3.02099 4.97249,0 9.98724,0.34458 11.14388,0.76574 l 2.10299,0.76573 0.27619,-41.21183 c 0.25745,-38.41485 0.39798,-41.41299 2.07062,-44.17578 0.98693,-1.63017 3.01717,-3.68624 4.51164,-4.56905 1.97315,-1.16557 17.43594,-3.46794 56.4675,-8.40785 52.19934,-6.60645 53.84739,-6.75643 57.1157,-5.19789 1.85097,0.88267 4.22558,3.00221 5.27689,4.71009 1.87115,3.0397 1.90616,4.45059 1.65892,66.86731 l -0.25257,63.76208 -3.03882,6.41499 c -7.4088,15.64009 -23.83488,24.67043 -39.87685,21.92256 -16.70516,-2.86148 -29.00178,-14.98842 -31.90382,-31.4636 -1.93694,-10.99616 2.02552,-23.49933 10.12687,-31.95436 9.72451,-10.14907 22.33693,-13.70994 37.33202,-10.53998 l 3.09294,0.65385 v -13.518 -13.51799 l -2.6171,0.51792 c -1.43941,0.28486 -18.99777,2.53709 -39.01859,5.00496 l -36.40149,4.48703 v 36.2989 c 0,40.3043 -0.0927,41.03671 -6.41189,50.66106 -4.5668,6.9554 -11.26479,12.00624 -19.69073,14.84844 -5.52953,1.86519 -16.46654,1.98853 -21.95686,0.24761 z m 17.56804,-24.96561 c 8.01551,-4.73489 8.01551,-17.84728 0,-22.58217 -3.32338,-1.96317 -9.66273,-2.00241 -13.37486,-0.0828 -8.40492,4.34635 -8.74198,17.3789 -0.57821,22.35664 3.74805,2.28532 10.35898,2.4314 13.95307,0.30832 z m 101.47016,-12.34407 c 9.33528,-4.42988 9.45449,-18.55224 0.19674,-23.30524 -9.23127,-4.73942 -19.05307,1.19428 -19.05307,11.51064 0,10.1117 9.66413,16.15658 18.85633,11.7946 z m -34.4887,-94.11335 c 18.92528,-2.35487 36.01556,-4.53377 37.97838,-4.84202 l 3.56878,-0.56044 v -6.57806 c 0,-4.12417 -0.38805,-6.57806 -1.04021,-6.57806 -1.43361,0 -69.11909,8.41924 -72.95236,9.07437 l -3.09294,0.52861 v 6.61859 c 0,3.64022 0.25397,6.61858 0.56437,6.61858 0.31041,0 16.0487,-1.92671 34.97398,-4.28157 z"
   style="fill:#ffffff;stroke:#ffffff;stroke-width:0.999999;paint-order:fill markers stroke" /><path
   id="path836"
   d="m 291.8897,164.05495 c -22.16075,-5.35722 -40.41817,-23.81356 -46.20875,-46.71222 -1.75415,-6.93674 -1.86595,-10.26018 -1.63472,-48.59787 l 0.2482,-41.151934 68.99382,68.999073 68.99383,68.999071 -42.34699,-0.0793 c -33.48586,-0.0627 -43.53938,-0.36755 -48.04539,-1.45684 z"
   style="fill:#ffffff;stroke:#ffffff;stroke-width:0.999999;paint-order:fill markers stroke" /></svg>
