<?xml version="1.0" encoding="utf-8"?>
<!-- Generator: Adobe Illustrator 25.3.1, SVG Export Plug-In . SVG Version: 6.00 Build 0)  -->
<svg version="1.1" id="Livello_1" xmlns="http://www.w3.org/2000/svg" xmlns:xlink="http://www.w3.org/1999/xlink" x="0px" y="0px"
	 viewBox="0 0 580.9 580.9" style="enable-background:new 0 0 580.9 580.9;" xml:space="preserve">
<style type="text/css">
	.st0{fill:#FFFFFF;}
	.st1{fill:url(#SVGID_1_);}
</style>
<g>
	<rect x="40.6" y="472.6" class="st0" width="503.5" height="32.3"/>
	<path class="st0" d="M55.4,350.4c-7-8.6-10.4-16.2-10.4-23.1c0-6.8,5.7-15.8,17.3-27.1c6.7-6.4,13.8-9.6,21.3-9.6
		c7.5,0,17.9,6.7,31.3,20.1c3.7,4.6,9.1,8.9,16,13c7,4.1,13.4,6.2,19.3,6.2c24.9,0,37.3-10.2,37.3-30.5c0-6.1-3.4-11.3-10.2-15.4
		c-6.8-4.1-15.3-7.2-25.5-9c-10.2-1.9-21.1-4.9-32.9-9c-11.8-4.1-22.7-9-32.9-14.6c-10.2-5.6-18.7-14.5-25.5-26.7
		c-6.8-12.2-10.2-26.8-10.2-43.9c0-23.5,8.8-44.1,26.3-61.6c17.5-17.5,41.4-26.3,71.6-26.3c16,0,30.7,2.1,43.9,6.2
		c13.2,4.1,22.4,8.4,27.5,12.6l10,7.6c8.3,7.8,12.4,14.3,12.4,19.7c0,5.4-3.2,12.7-9.6,22.1c-9.1,13.4-18.5,20.1-28.1,20.1
		c-5.6,0-12.6-2.7-20.9-8c-0.8-0.5-2.3-1.9-4.6-4c-2.3-2.1-4.4-3.9-6.2-5.2c-5.6-3.5-12.8-5.2-21.5-5.2c-8.7,0-15.9,2.1-21.7,6.2
		c-5.8,4.1-8.6,9.9-8.6,17.3c0,7.4,3.4,13.3,10.2,17.9c6.8,4.6,15.3,7.6,25.5,9.2c10.2,1.6,21.3,4.1,33.3,7.4
		c12,3.3,23.1,7.4,33.3,12.2c10.2,4.8,18.7,13.2,25.5,25.1c6.8,11.9,10.2,26.5,10.2,43.9c0,17.4-3.5,32.7-10.4,45.9
		c-7,13.2-16,23.5-27.3,30.7c-21.7,14.2-44.8,21.3-69.4,21.3c-12.6,0-24.5-1.5-35.7-4.6c-11.2-3.1-20.3-6.9-27.3-11.4
		c-14.2-8.6-24.1-16.8-29.7-24.9L55.4,350.4z"/>
	<path class="st0" d="M326.2,97.3l74.2,0.4c38.8,0,72.9,14,102.3,41.9c29.4,28,44.1,62.3,44.1,103.1c0,40.8-14.4,75.8-43.1,104.9
		c-28.8,29.2-63.6,43.7-104.5,43.7h-73.4c-16.3,0-26.5-3.3-30.5-10c-3.2-5.6-4.8-14.2-4.8-25.7V132.6c0-6.4,0.2-11.1,0.6-14
		c0.4-2.9,1.7-6.4,3.8-10.4C298.6,100.9,309,97.3,326.2,97.3z M452.5,298.9c15.5-14.3,23.3-32.3,23.3-54c0-21.7-7.6-39.8-22.7-54.4
		C438,176,420.3,168.7,400,168.7h-38.5v151.6h38.9C419.6,320.4,437,313.2,452.5,298.9z"/>
	<linearGradient id="SVGID_1_" gradientUnits="userSpaceOnUse" x1="40.5744" y1="476.1665" x2="546.8104" y2="476.1665">
		<stop  offset="1.971282e-07" style="stop-color:#B82684"/>
		<stop  offset="0.5" style="stop-color:#508FC5"/>
		<stop  offset="1" style="stop-color:#316193"/>
	</linearGradient>
	<rect x="40.6" y="460" class="st1" width="506.2" height="32.3"/>
</g>
</svg>
