<?xml version="1.0" encoding="UTF-8" standalone="no"?>
<svg
   xmlns:dc="http://purl.org/dc/elements/1.1/"
   xmlns:cc="http://creativecommons.org/ns#"
   xmlns:rdf="http://www.w3.org/1999/02/22-rdf-syntax-ns#"
   xmlns:svg="http://www.w3.org/2000/svg"
   xmlns="http://www.w3.org/2000/svg"
   xmlns:sodipodi="http://sodipodi.sourceforge.net/DTD/sodipodi-0.dtd"
   xmlns:inkscape="http://www.inkscape.org/namespaces/inkscape"
   version="1.1"
   id="Layer_1"
   x="0px"
   y="0px"
   width="92px"
   height="92px"
   viewBox="0 0 92 92"
   enable-background="new 0 0 92 92"
   xml:space="preserve"
   sodipodi:docname="Menu.svg"
   inkscape:version="1.0 (4035a4fb49, 2020-05-01)"><metadata
   id="metadata8"><rdf:RDF><cc:Work
       rdf:about=""><dc:format>image/svg+xml</dc:format><dc:type
         rdf:resource="http://purl.org/dc/dcmitype/StillImage" /><dc:title></dc:title></cc:Work></rdf:RDF></metadata><defs
   id="defs6" /><sodipodi:namedview
   inkscape:document-rotation="0"
   pagecolor="#ffffff"
   bordercolor="#666666"
   borderopacity="1"
   objecttolerance="10"
   gridtolerance="10"
   guidetolerance="10"
   inkscape:pageopacity="0"
   inkscape:pageshadow="2"
   inkscape:window-width="1366"
   inkscape:window-height="705"
   id="namedview4"
   showgrid="false"
   inkscape:zoom="4.1350375"
   inkscape:cx="67.32045"
   inkscape:cy="52.032027"
   inkscape:window-x="-8"
   inkscape:window-y="-8"
   inkscape:window-maximized="1"
   inkscape:current-layer="Layer_1" />

<path
   style="fill:#ffa602;fill-opacity:1;stroke-width:1"
   d="M 80.079289,72.268119 53.740203,45.927863 79.936479,19.731588 c 2.136297,-2.137468 2.136297,-5.602367 0,-7.738665 -2.137468,-2.1362977 -5.601197,-2.1362977 -7.738665,0 L 46.001538,38.189199 19.806434,11.992923 c -2.137469,-2.1362977 -5.601197,-2.1362977 -7.738665,0 -2.1374681,2.137468 -2.1374681,5.602367 0,7.738665 L 38.262874,45.927863 11.921447,72.268119 c -2.1374681,2.137469 -2.1374681,5.601197 0,7.738665 1.068734,1.068734 2.46874,1.602516 3.869918,1.602516 1.401177,0 2.801183,-0.533782 3.869917,-1.602516 L 46.001538,53.666528 72.340624,80.006784 c 1.068734,1.068734 2.468741,1.602516 3.869918,1.602516 1.401177,0 2.801183,-0.533782 3.869917,-1.602516 2.135127,-2.136297 2.135127,-5.601196 -0.0012,-7.738665 z"
   id="path2" /></svg>
