<?xml version="1.0" encoding="utf-8"?>
<!-- Uploaded to: SVG Repo, www.svgrepo.com, Generator: SVG Repo Mixer Tools -->
<svg fill="#000000" width="800px" height="800px" viewBox="0 0 32 32" version="1.1" xmlns="http://www.w3.org/2000/svg">
<title>credit-card-front</title>
<path d="M28 5.25h-24c-1.518 0.002-2.748 1.232-2.75 2.75v16c0.002 1.518 1.232 2.748 2.75 2.75h24c1.518-0.002 2.748-1.232 2.75-2.75v-16c-0.002-1.518-1.232-2.748-2.75-2.75h-0zM29.25 24c-0.001 0.69-0.56 1.249-1.25 1.25h-24c-0.69-0.001-1.249-0.56-1.25-1.25v-16c0.001-0.69 0.56-1.249 1.25-1.25h24c0.69 0.001 1.249 0.56 1.25 1.25v0zM10 21.25h-4c-0.414 0-0.75 0.336-0.75 0.75s0.336 0.75 0.75 0.75v0h4c0.414 0 0.75-0.336 0.75-0.75s-0.336-0.75-0.75-0.75v0zM20 21.25h-6c-0.414 0-0.75 0.336-0.75 0.75s0.336 0.75 0.75 0.75v0h6c0.414 0 0.75-0.336 0.75-0.75s-0.336-0.75-0.75-0.75v0zM24 17.25h-18c-0.414 0-0.75 0.336-0.75 0.75s0.336 0.75 0.75 0.75v0h18c0.414 0 0.75-0.336 0.75-0.75s-0.336-0.75-0.75-0.75v0zM26 9.25h-6c-0.414 0-0.75 0.336-0.75 0.75v0 4c0 0.414 0.336 0.75 0.75 0.75h6c0.414-0 0.75-0.336 0.75-0.75v0-4c-0-0.414-0.336-0.75-0.75-0.75v0zM25.25 13.25h-4.5v-2.5h4.5z"></path>
</svg>