<?xml version="1.0" encoding="UTF-8" standalone="no"?>
<svg
   xmlns:dc="http://purl.org/dc/elements/1.1/"
   xmlns:cc="http://creativecommons.org/ns#"
   xmlns:rdf="http://www.w3.org/1999/02/22-rdf-syntax-ns#"
   xmlns:svg="http://www.w3.org/2000/svg"
   xmlns="http://www.w3.org/2000/svg"
   xmlns:sodipodi="http://sodipodi.sourceforge.net/DTD/sodipodi-0.dtd"
   xmlns:inkscape="http://www.inkscape.org/namespaces/inkscape"
   inkscape:export-ydpi="96"
   inkscape:export-xdpi="96"
   inkscape:export-filename="C:\Users\etamburini\Desktop\icone Barlo\pdf.png"
   version="1.1"
   id="Layer_1"
   x="0px"
   y="0px"
   viewBox="0 0 506.58967 571.77466"
   xml:space="preserve"
   sodipodi:docname="pdf (1).svg"
   inkscape:version="1.0 (4035a4fb49, 2020-05-01)"
   width="506.58966"
   height="571.77466"><metadata
   id="metadata13"><rdf:RDF><cc:Work
       rdf:about=""><dc:format>image/svg+xml</dc:format><dc:type
         rdf:resource="http://purl.org/dc/dcmitype/StillImage" /><dc:title>pdf-glyph</dc:title></cc:Work></rdf:RDF></metadata><defs
   id="defs11" /><sodipodi:namedview
   inkscape:document-rotation="0"
   pagecolor="#ffffff"
   bordercolor="#666666"
   borderopacity="1"
   objecttolerance="10"
   gridtolerance="10"
   guidetolerance="10"
   inkscape:pageopacity="0"
   inkscape:pageshadow="2"
   inkscape:window-width="1920"
   inkscape:window-height="1017"
   id="namedview9"
   showgrid="false"
   inkscape:zoom="1.0507812"
   inkscape:cx="204.8"
   inkscape:cy="256"
   inkscape:window-x="-8"
   inkscape:window-y="-8"
   inkscape:window-maximized="1"
   inkscape:current-layer="Layer_1" />
<style
   type="text/css"
   id="style2">
	.st0{fill:#BB0706;}
</style>
<title
   id="title4">pdf-glyph</title>
<path
   style="fill:#1cb011;fill-opacity:1"
   class="st0"
   d="m 200.58208,328.39107 c 4.7,7.4 9.9,14.4 15.5,21.1 -3.1,0.6 -7.5,1.6 -13.6,3 -5.4,1.4 -9.7,2.7 -13,3.9 l 2.3,-5.3 c 3.4,-7.5 6.7,-16.7 8.8,-22.7 z m -3,-65.1 c -0.1,-9.8 -2.7,-9.8 -3.8,-9.8 -1.7,0 -4.2,3.6 -4.2,13.4 0.1,7.1 1.3,14.1 3.5,20.8 2,-7.2 4.5,-17.9 4.5,-24.4 z m -72.4,142.3 c -0.2,0.9 -0.1,1.4 1,2.1 v 0 c 1.2,0.7 2.6,0.9 3.9,0.4 7.3,-2.1 16.5,-15.4 22.2,-25.1 -9.9,5.2 -25.7,16.1 -27.1,22.6 z m 116.5,-49.1 c 10.9,8.4 23.7,12.1 29.5,9.6 1.9,-0.8 2.8,-2.3 2.8,-4.7 0,-1.1 -0.5,-2.1 -1.4,-2.8 -4.7,-4 -19.5,-3.6 -30.9,-2.1 z m 166.2,-203.7 v 294.4 c 0,35.3 -28.7,64 -64,64 h -281.6 c -35.3,0 -64,-28.7 -64,-64 v -384 c 0,-35.3 28.7,-64 64,-64 h 192.1 z m -115.3,210 v 0 c -0.3,-3.3 -3.4,-19.3 -30.7,-18.6 -19.3,0.5 -28.1,1.5 -31.5,2.1 -4.1,-4.4 -18.4,-20.2 -24.6,-33.1 1.7,-5.4 8.4,-27.4 8.1,-42.2 -0.3,-13.4 -2.8,-28.6 -19.3,-28.6 h -0.3 c -4.8,0.1 -8.6,1.6 -11.3,4.6 -4.3,4.8 -5.5,12.6 -4.2,26.3 1.3,13 7,27.7 8.6,31.7 -1.3,4.1 -6.4,19.5 -12.7,34.7 -5.9,14.3 -10.4,23.1 -11.9,26 -5.2,1.9 -26.1,9.8 -36.2,19.4 -9.4,9 -17.9,19.6 -10,30.6 2.6,3.7 7.6,5.9 13.2,5.9 h 0.2 c 10.1,0 20.9,-6.7 29.6,-18.3 13.1,-17.6 20.1,-29.5 22.2,-33.2 5,-1.4 23.5,-6.6 29.8,-8.1 5.4,-1.3 11.7,-2.5 14.5,-3 4.9,4.8 24.4,22 43.8,21.4 9,-0.3 15.5,-2.7 19.3,-7.1 2.5,-3 3.8,-6.7 3.4,-10.5 z m 89.7,-197.2 -140.8,-140.8 v 76.8 c 0,35.3 28.7,64 64,64 z"
   id="path6" />
<path
   style="fill:#ffffff;stroke:#ffffff;stroke-width:0.999999;paint-order:fill markers stroke"
   d="m 292.00985,164.08223 c -17.7825,-4.3044 -33.69888,-17.45548 -41.94123,-34.65437 -6.03768,-12.59852 -6.33381,-15.59746 -6.03822,-61.148135 l 0.26403,-40.686812 68.99382,68.999081 68.99383,68.999076 -42.34699,-0.0793 c -33.09158,-0.0619 -43.56617,-0.37441 -47.92524,-1.42956 z"
   id="path834" /><rect
   y="223.64313"
   x="87.553909"
   height="235.0632"
   width="207.46469"
   id="rect868"
   style="fill:#1cb011;fill-opacity:1;paint-order:fill markers stroke" /><path
   d="m 230.29318,200.26804 c 0.0404,0.55515 0.078,1.12211 0.10938,1.72174 0.28224,-0.57644 0.57145,-1.1495 0.87297,-1.71648 -0.27452,-8.1e-4 -0.54901,-0.005 -0.82354,-0.005 -0.0579,9e-5 -0.10142,-9e-5 -0.15881,0 z m 29.63778,12.57915 c -0.57117,0.32438 -1.14273,0.64855 -1.71333,0.97394 -0.56756,0.32365 1.21616,-0.53419 1.70597,-0.96658 0.003,-0.002 0.005,-0.005 0.007,-0.007 z m -5.90778,0.31553 c -0.0726,0.006 -0.14516,0.0119 -0.21772,0.0179 0.0296,0.0771 0.0588,0.15431 0.0883,0.23139 0.0432,-0.0831 0.0862,-0.16622 0.12937,-0.24927 z m 7.06788,0.0926 c -0.2705,0.35559 -0.53215,0.71902 -0.79514,1.08122 0.26541,-0.0339 0.53009,-0.0763 0.79514,-0.11465 z m -6.02032,0.56269 c 0.0403,0.31021 0.0633,0.6182 0.0926,0.92661 0.24495,-0.009 0.4894,-0.0218 0.73414,-0.0337 -0.27516,-0.29726 -0.53412,-0.58413 -0.82669,-0.89295 z m 27.96967,3.27731 c -0.88827,-0.0191 -1.72816,0.0172 -2.51057,0.11044 -3.87833,0.46224 -5.14864,1.11014 -6.70818,3.42245 -3.38635,5.02094 -78.17378,135.21607 -78.75747,137.10641 -0.3701,1.19864 -1.30113,13.18938 -2.09828,27.03466 -1.35783,23.58357 -1.38456,24.96226 -0.51326,26.43725 0.50557,0.85585 1.55576,1.95087 2.33387,2.43379 3.43204,2.12999 2.45969,2.65409 34.53272,-18.59422 l 14.27039,-9.45434 39.58015,-68.58686 c 44.53966,-77.18078 41.40774,-70.85896 38.16236,-77.03467 -2.51868,-4.79285 -9.6909,-11.77694 -15.7923,-15.3779 -7.70148,-4.5453 -16.28158,-7.36328 -22.49943,-7.49701 z M 96.46722,242.08639 c -0.0192,0.0385 -0.036,0.0781 -0.0547,0.11675 0.26974,0.0921 0.542,0.17658 0.81617,0.25558 -0.0335,-0.0265 -0.0583,-0.0488 -0.0926,-0.0757 -0.22492,-0.0925 -0.44555,-0.19912 -0.66892,-0.2966 z m 1.00339,0.57111 c -0.005,0.008 -0.0113,0.0149 -0.0137,0.0263 -0.0238,0.11198 0.0692,0.15727 0.2377,0.15777 -0.0726,-0.0602 -0.14736,-0.12205 -0.22403,-0.18407 z m 14.09685,5.30722 c -0.0166,0.11782 -0.0323,0.23409 -0.0473,0.34919 0.0951,-0.0106 0.30465,-0.0508 0.46278,-0.0778 -0.13546,-0.0874 -0.2818,-0.18562 -0.41545,-0.27136 z m 97.8113,48.40974 c -0.10193,0.0817 -0.20872,0.15669 -0.30606,0.24401 -0.0854,0.0767 -0.12161,0.19114 -0.16302,0.30186 0.19566,-0.23018 0.33597,-0.39327 0.46908,-0.54587 z m -5.82154,72.33326 1.70702,0.36497 c 7.14028,1.52721 16.29576,6.6214 21.5539,11.99226 l 2.61469,2.67044 -3.1532,2.12457 c -1.7342,1.16891 -4.51653,2.99151 -6.18335,4.04931 l -3.03014,1.92263 -2.89342,-2.04779 c -1.59114,-1.1264 -4.88364,-3.05034 -7.31716,-4.27544 l -4.42478,-2.22764 0.27346,-4.42584 c 0.15067,-2.43456 0.40459,-5.71443 0.56374,-7.28771 z m -71.89362,6.92695 c -1.58577,0.0412 -3.44321,0.57717 -5.3493,1.60184 -3.04544,1.63719 -13.08463,11.44167 -20.78714,20.30124 -7.2494,8.33837 -16.725108,20.38435 -17.085982,21.72111 -0.517816,1.91811 0.216829,3.8093 1.816405,4.67722 3.629947,1.96959 4.878477,1.08984 13.458427,-9.47749 4.16877,-5.13438 9.66518,-11.51644 12.21419,-14.18204 l 4.63514,-4.84655 -3.24261,5.04008 c -3.54613,5.51157 -3.95128,7.31798 -2.03201,9.07465 2.64188,2.41806 5.12174,2.02295 8.2953,-1.32102 1.73957,-1.83298 1.88803,-1.89665 1.5787,-0.67734 -1.01229,3.99033 -0.99541,4.21505 0.40809,5.61855 2.18692,2.18692 4.85523,1.92038 7.38341,-0.73729 2.11229,-2.22048 2.66308,-2.27293 2.66308,-0.25348 0,1.40187 1.96796,3.12736 4.53207,3.97358 1.54217,0.50897 2.3225,0.35938 6.02453,-1.15484 3.87833,-1.58632 4.75029,-1.7382 9.9066,-1.72279 3.10987,0.009 7.83526,0.42441 10.50086,0.9224 2.6656,0.49798 6.94316,1.05825 9.50588,1.24529 4.51023,0.32919 4.70429,0.29582 6.05818,-1.05808 1.84236,-1.84235 1.90954,-4.75657 0.14935,-6.51676 -1.04966,-1.04966 -2.02094,-1.3064 -6.05818,-1.60184 -2.64446,-0.19351 -7.722,-0.61693 -11.28337,-0.94028 -3.56137,-0.32335 -9.42713,-0.49952 -13.03457,-0.39231 -6.40257,0.19029 -6.56572,0.16675 -6.85858,-1.00023 -0.5216,-2.07854 -4.14398,-5.40298 -6.33585,-5.81418 -1.12552,-0.21115 -2.79891,-1.1283 -3.82738,-2.09828 l -1.82797,-1.72384 1.27789,-2.51267 c 3.02321,-5.94869 3.44525,-11.97626 1.03494,-14.7784 -0.82047,-0.95387 -2.13433,-1.40744 -3.7201,-1.36625 z m -82.947708,17.57821 c 0.12937,0.39872 0.47271,1.60746 0.3881,1.1969 -0.0161,-0.0779 -0.0374,-0.1548 -0.0547,-0.23244 -0.10898,-0.32222 -0.22243,-0.64296 -0.33341,-0.96446 z m 58.859058,43.67257 c -0.0272,0.0191 -0.0399,0.0281 -0.0673,0.0473 0.13439,0.034 0.27076,0.0619 0.40703,0.0915 -0.082,-0.0353 -0.16262,-0.074 -0.24506,-0.10833 -0.0306,-0.0128 -0.063,-0.0204 -0.0947,-0.0305 z m -12.23102,10.31049 c -0.0591,0.0592 -0.11732,0.11694 -0.17669,0.1767 0.63866,1.054 1.28571,2.102 1.9647,3.129 0.078,-0.008 0.14801,-0.0101 0.22929,-0.019 -0.41852,-1.21188 -1.54845,-3.89098 -1.0076,-2.14877 -0.34492,-0.37055 -0.67801,-0.75363 -1.0097,-1.13801 z m 158.69923,13.45527 c -0.6699,0.15926 -1.3382,0.32374 -2.00678,0.48907 1.1365,-0.11406 1.58952,-0.25093 1.89424,-0.41755 0.0326,-0.0178 0.0784,-0.0519 0.11254,-0.0715 z"
   style="fill:#ffffff;fill-opacity:1;stroke-width:0.999999"
   id="path907" /></svg>
