<?xml version="1.0" encoding="UTF-8" standalone="no"?>
<svg
   xmlns:dc="http://purl.org/dc/elements/1.1/"
   xmlns:cc="http://creativecommons.org/ns#"
   xmlns:rdf="http://www.w3.org/1999/02/22-rdf-syntax-ns#"
   xmlns:svg="http://www.w3.org/2000/svg"
   xmlns="http://www.w3.org/2000/svg"
   xmlns:sodipodi="http://sodipodi.sourceforge.net/DTD/sodipodi-0.dtd"
   xmlns:inkscape="http://www.inkscape.org/namespaces/inkscape"
   height="571.77466"
   width="506.58981"
   inkscape:version="1.0 (4035a4fb49, 2020-05-01)"
   sodipodi:docname="image.svg"
   xml:space="preserve"
   viewBox="0 0 506.5898 571.77469"
   y="0px"
   x="0px"
   id="Layer_1"
   version="1.1"
   inkscape:export-filename="C:\Users\etamburini\Desktop\icone Barlo\img.png"
   inkscape:export-xdpi="96"
   inkscape:export-ydpi="96"><metadata
   id="metadata13"><rdf:RDF><cc:Work
       rdf:about=""><dc:format>image/svg+xml</dc:format><dc:type
         rdf:resource="http://purl.org/dc/dcmitype/StillImage" /><dc:title>image-glyph</dc:title></cc:Work></rdf:RDF></metadata><defs
   id="defs11" /><sodipodi:namedview
   inkscape:current-layer="Layer_1"
   inkscape:window-maximized="1"
   inkscape:window-y="-8"
   inkscape:window-x="-8"
   inkscape:cy="332.13383"
   inkscape:cx="204.8"
   inkscape:zoom="1.0507812"
   showgrid="false"
   id="namedview9"
   inkscape:window-height="1017"
   inkscape:window-width="1920"
   inkscape:pageshadow="2"
   inkscape:pageopacity="0"
   guidetolerance="10"
   gridtolerance="10"
   objecttolerance="10"
   borderopacity="1"
   bordercolor="#666666"
   pagecolor="#ffffff"
   inkscape:document-rotation="0"
   units="px" />
<style
   id="style2"
   type="text/css">
	.st0{fill:#FFC311;}
</style>
<title
   id="title4">image-glyph</title>
<path
   style="fill:#fad100;fill-opacity:1"
   id="path6"
   d="M 256.1,0 H 64 C 28.7,0 0,28.7 0,64 v 384 c 0,35.3 28.7,64 64,64 h 281.6 c 35.3,0 64,-28.7 64,-64 V 153.6 Z m 51.1,390.4 c 0,17.7 -14.3,32 -32,32 H 134.4 c -17.7,0 -32,-14.3 -32,-32 V 275.2 c 0,-17.7 14.3,-32 32,-32 h 140.8 c 17.7,0 32,14.3 32,32 z m 0,-224 c -35.3,0 -64,-28.7 -64,-64 V 25.6 L 384,166.4 Z m -32,102.4 H 134.4 c -3.5,0 -6.4,2.9 -6.4,6.4 v 115.2 c 0,3.5 2.9,6.4 6.4,6.4 h 140.8 c 3.5,0 6.4,-2.9 6.4,-6.4 V 275.2 c 0,-3.5 -2.9,-6.4 -6.4,-6.4 z M 140.8,384 l 38.4,-38.4 12.8,12.8 38.4,-38.4 38.4,64 z"
   class="st0" />
<path
   id="path832"
   d="m 161.02322,364.96637 18.53948,-18.55779 6.1862,6.1862 6.1862,6.1862 19.10963,-19.09257 19.10963,-19.09257 18.39255,30.75041 c 10.1159,16.91272 18.56878,31.0716 18.78419,31.46416 0.21541,0.39257 -27.78714,0.71376 -62.22786,0.71376 h -62.61951 z"
   style="fill:#ffffff;stroke:#ffffff;stroke-width:0.999999;paint-order:fill markers stroke" /><path
   id="path834"
   d="m 125.81115,420.71213 c -8.66925,-2.68663 -17.45987,-10.67161 -20.53955,-18.65715 -1.73476,-4.49818 -1.82476,-7.9469 -1.82476,-69.92115 v -65.18959 l 2.67053,-5.43828 c 2.98307,-6.07471 8.90237,-11.80138 15.68119,-15.17086 l 4.48843,-2.23101 H 204.8 283.31301 l 5.51065,2.79038 c 6.43679,3.25936 12.37093,9.32055 15.27304,15.60006 2.04418,4.42313 2.05646,4.83905 2.05646,69.6393 0,61.97425 -0.09,65.42297 -1.82476,69.92115 -2.28751,5.93145 -9.04629,13.24364 -15.2865,16.53814 l -4.77721,2.52213 -78.03718,0.1671 c -42.92045,0.0919 -79.10781,-0.1647 -80.41636,-0.57022 z m 154.59289,-25.97964 c 1.30292,-1.8602 1.48147,-9.36798 1.48147,-62.2975 v -60.18241 l -2.0828,-1.94042 c -2.05849,-1.91777 -2.93385,-1.94041 -75.00271,-1.94041 -72.06886,0 -72.94422,0.0226 -75.00271,1.94041 l -2.0828,1.94042 v 60.18241 c 0,52.92952 0.17854,60.4373 1.48148,62.2975 l 1.48147,2.1151 H 204.8 278.92256 Z"
   style="fill:#ffffff;stroke:#ffffff;stroke-width:0.999999;paint-order:fill markers stroke" /><path
   id="path836"
   d="m 291.8897,164.05495 c -22.16075,-5.35723 -40.41817,-23.81356 -46.20875,-46.71222 -1.75415,-6.93674 -1.86595,-10.26018 -1.63472,-48.597872 l 0.2482,-41.151933 68.99382,68.999073 68.99383,68.999072 -42.34699,-0.0793 c -33.48586,-0.0627 -43.53938,-0.36755 -48.04539,-1.45684 z"
   style="fill:#ffffff;stroke:#ffffff;stroke-width:0.999999;paint-order:fill markers stroke" /></svg>
