<?xml version="1.0" encoding="UTF-8" standalone="no"?>
<svg
   xmlns:dc="http://purl.org/dc/elements/1.1/"
   xmlns:cc="http://creativecommons.org/ns#"
   xmlns:rdf="http://www.w3.org/1999/02/22-rdf-syntax-ns#"
   xmlns:svg="http://www.w3.org/2000/svg"
   xmlns="http://www.w3.org/2000/svg"
   xmlns:sodipodi="http://sodipodi.sourceforge.net/DTD/sodipodi-0.dtd"
   xmlns:inkscape="http://www.inkscape.org/namespaces/inkscape"
   inkscape:version="1.0 (4035a4fb49, 2020-05-01)"
   sodipodi:docname="image_seen.svg"
   xml:space="preserve"
   viewBox="0 0 506.58983 571.77467"
   y="0px"
   x="0px"
   id="Layer_1"
   version="1.1"
   width="506.58981"
   height="571.77466"
   inkscape:export-filename="C:\Users\etamburini\Desktop\icone Barlo\img_letto.png"
   inkscape:export-xdpi="96"
   inkscape:export-ydpi="96"><metadata
   id="metadata13"><rdf:RDF><cc:Work
       rdf:about=""><dc:format>image/svg+xml</dc:format><dc:type
         rdf:resource="http://purl.org/dc/dcmitype/StillImage" /><dc:title>image-glyph</dc:title></cc:Work></rdf:RDF></metadata><defs
   id="defs11" /><sodipodi:namedview
   inkscape:current-layer="Layer_1"
   inkscape:window-maximized="1"
   inkscape:window-y="-8"
   inkscape:window-x="-8"
   inkscape:cy="332.13383"
   inkscape:cx="257.97603"
   inkscape:zoom="1.0507812"
   showgrid="false"
   id="namedview9"
   inkscape:window-height="1017"
   inkscape:window-width="1920"
   inkscape:pageshadow="2"
   inkscape:pageopacity="0"
   guidetolerance="10"
   gridtolerance="10"
   objecttolerance="10"
   borderopacity="1"
   bordercolor="#666666"
   pagecolor="#ffffff"
   inkscape:document-rotation="0"
   inkscape:lockguides="false" />
<style
   id="style2"
   type="text/css">
	.st0{fill:#FFC311;}
</style>
<title
   id="title4">image-glyph</title>

<path
   style="fill:#fad100;fill-opacity:1"
   id="path6"
   d="M 256.1,0 H 64 C 28.7,0 0,28.7 0,64 v 384 c 0,35.3 28.7,64 64,64 h 281.6 c 35.3,0 64,-28.7 64,-64 V 153.6 Z m 51.1,390.4 c 0,17.7 -14.3,32 -32,32 H 134.4 c -17.7,0 -32,-14.3 -32,-32 V 275.2 c 0,-17.7 14.3,-32 32,-32 h 140.8 c 17.7,0 32,14.3 32,32 z m 0,-224 c -35.3,0 -64,-28.7 -64,-64 V 25.6 L 384,166.4 Z m -32,102.4 H 134.4 c -3.5,0 -6.4,2.9 -6.4,6.4 v 115.2 c 0,3.5 2.9,6.4 6.4,6.4 h 140.8 c 3.5,0 6.4,-2.9 6.4,-6.4 V 275.2 c 0,-3.5 -2.9,-6.4 -6.4,-6.4 z M 140.8,384 l 38.4,-38.4 12.8,12.8 38.4,-38.4 38.4,64 z"
   class="st0" /><path
   id="path2"
   style="clip-rule:evenodd;fill:#ffa502;fill-opacity:1;fill-rule:evenodd;stroke:#ffffff;stroke-width:20;stroke-linejoin:round;stroke-miterlimit:1.41421;stroke-dasharray:none;stroke-opacity:1"
   d="m 409.12698,386.84902 c -48.2375,0 -87.46283,39.22766 -87.46283,87.46283 0,48.2375 39.22533,87.46283 87.46283,87.46283 48.2375,0 87.46283,-39.22533 87.46283,-87.46283 0,-48.23517 -39.22533,-87.46283 -87.46283,-87.46283 z" /><g
   id="g6"
   style="clip-rule:evenodd;fill:#ffffff;fill-opacity:1;fill-rule:evenodd;stroke-width:4.28754;stroke-linejoin:round;stroke-miterlimit:1.41421;stroke-dasharray:none"
   transform="matrix(2.3323421,0,0,2.3323421,291.95711,328.00636)"><path
     id="path4"
     style="fill:#ffffff;fill-opacity:1;fill-rule:nonzero;stroke-width:4.28754;stroke-miterlimit:1.41421;stroke-dasharray:none"
     d="m 66.637,48.229 -20.8,19.8 -11.9,-11.9 -5.7,5.6 14.7,14.7 c 0.8,0.8 1.8,1.2 2.8,1.2 1,0 2,-0.4 2.8,-1.1 l 23.7,-22.5 z" /></g><path
   id="path835"
   d="m 160.89806,364.97389 18.53198,-18.55028 6.44862,6.3992 6.44861,6.39919 18.98992,-18.9721 c 10.44445,-10.43466 19.17776,-18.77783 19.40735,-18.54037 0.69439,0.71817 36.76822,60.96316 36.76822,61.40465 0,0.22549 -28.1535,0.40999 -62.56334,0.40999 h -62.56334 z"
   style="fill:#ffffff;stroke:#ffffff;stroke-width:0.999999;paint-order:fill markers stroke" /><path
   id="path837"
   d="m 125.6935,420.71213 c -8.34532,-2.58625 -16.54782,-9.85146 -20.30786,-17.98732 -2.04463,-4.42413 -2.05646,-4.82725 -2.05646,-70.11514 v -65.66543 l 2.61533,-4.96116 c 3.78222,-7.17467 7.46754,-10.96148 14.24335,-14.6356 l 5.98147,-3.24339 h 78.51302 78.51301 l 5.42702,2.66503 c 6.81788,3.34803 13.35243,10.50071 15.95978,17.46946 1.94426,5.19653 1.97507,6.45538 1.71658,70.13984 l -0.26323,64.84835 -2.51855,4.75836 c -3.30696,6.24791 -8.34154,11.31525 -14.43319,14.52716 l -4.93674,2.60296 -78.03717,0.1671 c -42.92045,0.0919 -79.10781,-0.1647 -80.41636,-0.57022 z m 154.33399,-25.43955 c 1.65142,-1.49451 1.74036,-4.68031 1.74036,-62.33457 0,-59.49068 -0.0398,-60.79932 -1.90334,-62.66292 -1.87026,-1.87025 -3.17224,-1.90334 -74.88291,-1.90334 h -72.97956 l -2.2026,2.06923 -2.2026,2.06924 v 60.26534 c 0,58.99644 0.0401,60.30541 1.90335,62.16868 1.87046,1.87046 3.17224,1.90335 75.34514,1.90335 67.00286,0 73.59438,-0.13809 75.18216,-1.57501 z"
   style="fill:#ffffff;stroke:#ffffff;stroke-width:0.999999;paint-order:fill markers stroke" /><path
   id="path839"
   d="m 292.71209,164.18108 c -20.02969,-5.40788 -34.28742,-17.10809 -42.97094,-35.2629 -5.737,-11.99445 -6.0896,-15.6866 -5.81252,-60.864535 l 0.24814,-40.460734 68.99383,68.99908 68.99382,68.999079 -42.34698,-0.0626 c -32.40299,-0.0479 -43.46435,-0.36431 -47.10535,-1.34736 z"
   style="fill:#ffffff;stroke:#ffffff;stroke-width:0.999999;paint-order:fill markers stroke" /></svg>
