<?xml version="1.0" encoding="UTF-8" standalone="no"?>
<svg
   xmlns:dc="http://purl.org/dc/elements/1.1/"
   xmlns:cc="http://creativecommons.org/ns#"
   xmlns:rdf="http://www.w3.org/1999/02/22-rdf-syntax-ns#"
   xmlns:svg="http://www.w3.org/2000/svg"
   xmlns="http://www.w3.org/2000/svg"
   xmlns:sodipodi="http://sodipodi.sourceforge.net/DTD/sodipodi-0.dtd"
   xmlns:inkscape="http://www.inkscape.org/namespaces/inkscape"
   inkscape:version="1.0 (4035a4fb49, 2020-05-01)"
   sodipodi:docname="locked-tile-icon.svg"
   id="svg4"
   version="1.1"
   fill="none"
   viewBox="0 0 24 24"
   height="24px"
   width="24px">
  <metadata
     id="metadata10">
    <rdf:RDF>
      <cc:Work
         rdf:about="">
        <dc:format>image/svg+xml</dc:format>
        <dc:type
           rdf:resource="http://purl.org/dc/dcmitype/StillImage" />
        <dc:title></dc:title>
      </cc:Work>
    </rdf:RDF>
  </metadata>
  <defs
     id="defs8" />
  <sodipodi:namedview
     inkscape:current-layer="svg4"
     inkscape:window-maximized="1"
     inkscape:window-y="-8"
     inkscape:window-x="-8"
     inkscape:cy="12"
     inkscape:cx="12"
     inkscape:zoom="35.416667"
     showgrid="false"
     id="namedview6"
     inkscape:window-height="1017"
     inkscape:window-width="1920"
     inkscape:pageshadow="2"
     inkscape:pageopacity="0"
     guidetolerance="10"
     gridtolerance="10"
     objecttolerance="10"
     borderopacity="1"
     bordercolor="#666666"
     pagecolor="#ffffff" />
  <path
     style="fill:#ffffff;fill-opacity:1"
     id="path2"
     fill="#001A72"
     d="M5 11V10.25C4.58579 10.25 4.25 10.5858 4.25 11H5ZM19 11H19.75C19.75 10.5858 19.4142 10.25 19 10.25V11ZM19 21V21.75C19.4142 21.75 19.75 21.4142 19.75 21H19ZM5 21H4.25C4.25 21.4142 4.58579 21.75 5 21.75V21ZM15.25 7C15.25 7.41421 15.5858 7.75 16 7.75C16.4142 7.75 16.75 7.41421 16.75 7H15.25ZM7.25 11C7.25 11.4142 7.58579 11.75 8 11.75C8.41421 11.75 8.75 11.4142 8.75 11H7.25ZM5 11.75H19V10.25H5V11.75ZM18.25 11V21H19.75V11H18.25ZM19 20.25H5V21.75H19V20.25ZM5.75 21V11H4.25V21H5.75ZM8.75 7C8.75 5.20507 10.2051 3.75 12 3.75V2.25C9.37665 2.25 7.25 4.37665 7.25 7H8.75ZM12 3.75C13.7949 3.75 15.25 5.20507 15.25 7H16.75C16.75 4.37665 14.6234 2.25 12 2.25V3.75ZM7.25 7V11H8.75V7H7.25Z" />
</svg>
