<?xml version="1.0" encoding="UTF-8" standalone="no"?>
<svg
   xmlns:dc="http://purl.org/dc/elements/1.1/"
   xmlns:cc="http://creativecommons.org/ns#"
   xmlns:rdf="http://www.w3.org/1999/02/22-rdf-syntax-ns#"
   xmlns:svg="http://www.w3.org/2000/svg"
   xmlns="http://www.w3.org/2000/svg"
   xmlns:sodipodi="http://sodipodi.sourceforge.net/DTD/sodipodi-0.dtd"
   xmlns:inkscape="http://www.inkscape.org/namespaces/inkscape"
   version="1.1"
   id="Layer_1"
   x="0px"
   y="0px"
   width="92px"
   height="92px"
   viewBox="0 0 92 92"
   enable-background="new 0 0 92 92"
   xml:space="preserve"
   sodipodi:docname="Exit.svg"
   inkscape:version="1.0 (4035a4fb49, 2020-05-01)"><metadata
   id="metadata8"><rdf:RDF><cc:Work
       rdf:about=""><dc:format>image/svg+xml</dc:format><dc:type
         rdf:resource="http://purl.org/dc/dcmitype/StillImage" /><dc:title></dc:title></cc:Work></rdf:RDF></metadata><defs
   id="defs6" /><sodipodi:namedview
   inkscape:document-rotation="0"
   pagecolor="#ffffff"
   bordercolor="#666666"
   borderopacity="1"
   objecttolerance="10"
   gridtolerance="10"
   guidetolerance="10"
   inkscape:pageopacity="0"
   inkscape:pageshadow="2"
   inkscape:window-width="1366"
   inkscape:window-height="705"
   id="namedview4"
   showgrid="false"
   inkscape:zoom="5.8478261"
   inkscape:cx="46"
   inkscape:cy="46"
   inkscape:window-x="-8"
   inkscape:window-y="-8"
   inkscape:window-maximized="1"
   inkscape:current-layer="Layer_1" />
<path
   id="XMLID_1456_"
   d="M60,60.7V79c0,2.2-1.6,4-3.8,4H4c-2.2,0-4-1.8-4-4V13c0-2.2,1.8-4,4-4h52.2c2.2,0,3.8,1.8,3.8,4v18.3  c0,2.2-1.8,4-4,4s-4-1.8-4-4V17H8v58h44V60.7c0-2.2,1.8-4,4-4S60,58.5,60,60.7z M90.8,43L75.2,27.2c-1.6-1.6-4.1-1.6-5.7,0  c-1.6,1.6-1.6,4.1,0,5.7l8.9,9L29.9,42c-2.2,0-4,1.8-4,4c0,2.2,1.8,4,4,4c0,0,0,0,0,0l48.5-0.1l-8.9,9c-1.6,1.6-1.5,4.1,0,5.7  c0.8,0.8,1.8,1.2,2.8,1.2c1,0,2.1-0.4,2.8-1.2l15.7-15.8C92.4,47.1,92.4,44.6,90.8,43z"
   style="fill:#ffffff" />
</svg>
