<?xml version="1.0" encoding="UTF-8" standalone="no"?>
<svg
   xmlns:dc="http://purl.org/dc/elements/1.1/"
   xmlns:cc="http://creativecommons.org/ns#"
   xmlns:rdf="http://www.w3.org/1999/02/22-rdf-syntax-ns#"
   xmlns:svg="http://www.w3.org/2000/svg"
   xmlns="http://www.w3.org/2000/svg"
   xmlns:sodipodi="http://sodipodi.sourceforge.net/DTD/sodipodi-0.dtd"
   xmlns:inkscape="http://www.inkscape.org/namespaces/inkscape"
   inkscape:version="1.0 (4035a4fb49, 2020-05-01)"
   sodipodi:docname="Menu.svg"
   xml:space="preserve"
   enable-background="new 0 0 92 92"
   viewBox="0 0 92 92"
   height="92px"
   width="92px"
   y="0px"
   x="0px"
   id="Layer_1"
   version="1.1"><metadata
   id="metadata8"><rdf:RDF><cc:Work
       rdf:about=""><dc:format>image/svg+xml</dc:format><dc:type
         rdf:resource="http://purl.org/dc/dcmitype/StillImage" /><dc:title></dc:title></cc:Work></rdf:RDF></metadata><defs
   id="defs6" /><sodipodi:namedview
   inkscape:current-layer="Layer_1"
   inkscape:window-maximized="1"
   inkscape:window-y="-8"
   inkscape:window-x="-8"
   inkscape:cy="46"
   inkscape:cx="46"
   inkscape:zoom="5.8478261"
   showgrid="false"
   id="namedview4"
   inkscape:window-height="705"
   inkscape:window-width="1366"
   inkscape:pageshadow="2"
   inkscape:pageopacity="0"
   guidetolerance="10"
   gridtolerance="10"
   objecttolerance="10"
   borderopacity="1"
   bordercolor="#666666"
   pagecolor="#ffffff" />
<path
   style="fill:#ffa602;fill-opacity:1"
   d="M78,23.5H14c-3.6,0-6.5-2.9-6.5-6.5s2.9-6.5,6.5-6.5h64c3.6,0,6.5,2.9,6.5,6.5S81.6,23.5,78,23.5z M84.5,46  c0-3.6-2.9-6.5-6.5-6.5H14c-3.6,0-6.5,2.9-6.5,6.5s2.9,6.5,6.5,6.5h64C81.6,52.5,84.5,49.6,84.5,46z M84.5,75c0-3.6-2.9-6.5-6.5-6.5  H14c-3.6,0-6.5,2.9-6.5,6.5s2.9,6.5,6.5,6.5h64C81.6,81.5,84.5,78.6,84.5,75z"
   id="XMLID_101_" />
</svg>
