<?xml version="1.0" encoding="UTF-8" standalone="no"?>
<svg
   xmlns:dc="http://purl.org/dc/elements/1.1/"
   xmlns:cc="http://creativecommons.org/ns#"
   xmlns:rdf="http://www.w3.org/1999/02/22-rdf-syntax-ns#"
   xmlns:svg="http://www.w3.org/2000/svg"
   xmlns="http://www.w3.org/2000/svg"
   xmlns:sodipodi="http://sodipodi.sourceforge.net/DTD/sodipodi-0.dtd"
   xmlns:inkscape="http://www.inkscape.org/namespaces/inkscape"
   inkscape:version="1.0 (4035a4fb49, 2020-05-01)"
   sodipodi:docname="noDataIcon-a.svg"
   xml:space="preserve"
   style="enable-background:new 0 0 412.533 412.533;"
   viewBox="0 0 412.533 412.533"
   y="0px"
   x="0px"
   id="Capa_1"
   version="1.1"><metadata
   id="metadata41"><rdf:RDF><cc:Work
       rdf:about=""><dc:format>image/svg+xml</dc:format><dc:type
         rdf:resource="http://purl.org/dc/dcmitype/StillImage" /></cc:Work></rdf:RDF></metadata><defs
   id="defs39">
	
</defs><sodipodi:namedview
   inkscape:current-layer="Capa_1"
   inkscape:window-maximized="1"
   inkscape:window-y="-8"
   inkscape:window-x="-8"
   inkscape:cy="206.26649"
   inkscape:cx="206.26649"
   inkscape:zoom="2.0604413"
   showgrid="false"
   id="namedview37"
   inkscape:window-height="1017"
   inkscape:window-width="1920"
   inkscape:pageshadow="2"
   inkscape:pageopacity="0"
   guidetolerance="10"
   gridtolerance="10"
   objecttolerance="10"
   borderopacity="1"
   bordercolor="#666666"
   pagecolor="#ffffff" />
<path
   style="fill:#ffffff;fill-opacity:1"
   d="m 412.485,203.954 h 0.041 c 0,-14.323 -5.609,-27.336 -14.729,-37.042 l 0.016,-0.016 -79.27,-101.819 H 90.479 l -76.986,103.884 0.033,0.033 C 6.243,177.61 1.764,188.559 0.992,200.508 0.415,201.629 0,202.84 0,204.19 v 135.138 c 0,4.495 3.642,8.129 8.129,8.129 h 396.276 c 4.495,0 8.129,-3.633 8.129,-8.129 V 204.19 c -10e-4,-0.081 -0.049,-0.155 -0.049,-0.236 z M 97.844,81.335 H 311.43 l 48.389,68.5 c -0.512,-0.016 -1,-0.081 -1.52,-0.081 h -97.502 v 24.369 c 0,27.67 -29.052,21.687 -37.96,21.687 h -32.466 c -8.909,0 -37.96,5.983 -37.96,-21.687 V 149.754 H 54.9 c -1.016,0 -2.008,0.098 -3.016,0.146 z M 396.276,331.199 H 16.265 V 204.19 c 0,-0.081 -0.041,-0.154 -0.049,-0.236 h 0.723 c 0,-20.923 17.029,-37.944 37.96,-37.944 h 81.253 v 8.112 c 0,27.987 21.281,37.944 54.218,37.944 h 32.466 c 32.945,0 54.218,-9.957 54.218,-37.944 v -8.112 h 81.261 c 10.461,0 19.948,4.251 26.824,11.12 l 0.016,0.016 c 6.869,6.869 11.112,16.347 11.112,26.808 h 0.057 c 0,0.081 -0.049,0.154 -0.049,0.236 0.001,0 0.001,127.009 0.001,127.009 z"
   id="path2" />
<g
   id="g6">
</g>
<g
   id="g8">
</g>
<g
   id="g10">
</g>
<g
   id="g12">
</g>
<g
   id="g14">
</g>
<g
   id="g16">
</g>
<g
   id="g18">
</g>
<g
   id="g20">
</g>
<g
   id="g22">
</g>
<g
   id="g24">
</g>
<g
   id="g26">
</g>
<g
   id="g28">
</g>
<g
   id="g30">
</g>
<g
   id="g32">
</g>
<g
   id="g34">
</g>
</svg>
