<?xml version="1.0" encoding="UTF-8" standalone="no"?>
<svg
   xmlns:dc="http://purl.org/dc/elements/1.1/"
   xmlns:cc="http://creativecommons.org/ns#"
   xmlns:rdf="http://www.w3.org/1999/02/22-rdf-syntax-ns#"
   xmlns:svg="http://www.w3.org/2000/svg"
   xmlns="http://www.w3.org/2000/svg"
   xmlns:sodipodi="http://sodipodi.sourceforge.net/DTD/sodipodi-0.dtd"
   xmlns:inkscape="http://www.inkscape.org/namespaces/inkscape"
   width="20"
   height="20"
   viewBox="0 0 20 20"
   version="1.1"
   id="svg12"
   sodipodi:docname="rete_no_giallo.svg"
   inkscape:version="1.0 (4035a4fb49, 2020-05-01)">
  <metadata
     id="metadata16">
    <rdf:RDF>
      <cc:Work
         rdf:about="">
        <dc:format>image/svg+xml</dc:format>
        <dc:type
           rdf:resource="http://purl.org/dc/dcmitype/StillImage" />
        <dc:title>radio_signal [#1026]</dc:title>
      </cc:Work>
    </rdf:RDF>
  </metadata>
  <sodipodi:namedview
     inkscape:document-rotation="0"
     pagecolor="#ffffff"
     bordercolor="#666666"
     borderopacity="1"
     objecttolerance="10"
     gridtolerance="10"
     guidetolerance="10"
     inkscape:pageopacity="0"
     inkscape:pageshadow="2"
     inkscape:window-width="1366"
     inkscape:window-height="705"
     id="namedview14"
     showgrid="false"
     inkscape:zoom="19.214285"
     inkscape:cx="9.6864021"
     inkscape:cy="8.8164481"
     inkscape:window-x="-8"
     inkscape:window-y="-8"
     inkscape:window-maximized="1"
     inkscape:current-layer="svg12" />
  <!-- Generator: Sketch 3.8.1 (29687) - http://www.bohemiancoding.com/sketch -->
  <title
     id="title2">radio_signal [#1026]</title>
  <desc
     id="desc4">Created with Sketch.</desc>
  <defs
     id="defs6">
    <filter
       height="1.0000096"
       y="-4.8000001e-06"
       width="1.0000096"
       x="-4.8e-06"
       id="filter853"
       style="color-interpolation-filters:sRGB"
       inkscape:collect="always">
      <feGaussianBlur
         id="feGaussianBlur855"
         stdDeviation="3.9657994e-05"
         inkscape:collect="always" />
    </filter>
  </defs>
  <g
     transform="translate(6.05e-5,2.9995)"
     id="Page-1"
     stroke="none"
     stroke-width="1"
     fill="none"
     fill-rule="evenodd"
     style="fill:#ffe000;fill-opacity:1;stroke:none;stroke-opacity:1">
    <g
       id="Dribbble-Light-Preview"
       transform="translate(-140,-3642)"
       fill="#000000"
       style="fill:#ffe000;fill-opacity:1;stroke:none;stroke-opacity:1">
      <g
         id="icons"
         transform="translate(56,160)"
         style="fill:#ffe000;fill-opacity:1;stroke:none;stroke-opacity:1">
        <path
           d="m 95.432439,3487.6383 c -0.023,-0.026 -0.04,-0.054 -0.065,-0.079 h -0.004 c -0.781,-0.7675 -2.12,-0.6958 -2.827,-9e-4 -0.707,0.6948 -0.705,2.0825 0.002,2.7774 0.009,0.01 0.02,0.015 0.029,0.024 0.024,0.024 0.041,0.054 0.066,0.079 h 0.003 c 0.781,0.7675 2.12,0.6967 2.827,9e-4 0.707,-0.6948 0.705,-2.0825 -0.002,-2.7774 -0.009,-0.01 -0.02,-0.014 -0.029,-0.023 m -4.313,-1.4683 -1.414,-1.3906 c -2.121,2.0855 -2.022,6.3567 0.099,8.4412 l 1.414,-1.3896 c -1.414,-1.3897 -1.513,-4.2713 -0.099,-5.661 m -2.828,-2.7803 -1.414,-1.3897 c -4.243,4.17 -3.437,10.5258 0.099,14 l 1.414,-1.3897 c -2.828,-2.7793 -2.927,-8.4403 -0.099,-11.2206 m 9.904,1.3897 -1.414,1.3906 c 1.414,1.3897 1.513,4.2713 0.099,5.661 l 1.414,1.3896 c 2.121001,-2.0845 2.022001,-6.3557 -0.099,-8.4412 m 2.927001,11.2206 -1.414001,-1.3897 c 2.829001,-2.7793 2.730001,-8.4403 -0.099,-11.2206 L 101.02344,3482 c 3.536,3.4752 4.342,9.831 0.099,14"
           id="radio_signal-[#1026]"
           style="fill:#ffe000;fill-opacity:1;stroke:none;stroke-opacity:1" />
      </g>
    </g>
  </g>
  <path
     id="path847"
     d="M 0.05204461,0.10408923 19.881042,19.933086"
     style="fill:#ffff00;fill-opacity:1;stroke:#ffe000;stroke-width:1.7;stroke-linecap:square;stroke-linejoin:round;stroke-miterlimit:15.5;stroke-dasharray:none;stroke-dashoffset:0;stroke-opacity:1;filter:url(#filter853)" />
</svg>
