<?xml version="1.0" encoding="UTF-8" standalone="no"?>
<svg
   xmlns:dc="http://purl.org/dc/elements/1.1/"
   xmlns:cc="http://creativecommons.org/ns#"
   xmlns:rdf="http://www.w3.org/1999/02/22-rdf-syntax-ns#"
   xmlns:svg="http://www.w3.org/2000/svg"
   xmlns="http://www.w3.org/2000/svg"
   xmlns:sodipodi="http://sodipodi.sourceforge.net/DTD/sodipodi-0.dtd"
   xmlns:inkscape="http://www.inkscape.org/namespaces/inkscape"
   height="571.77466"
   width="506.58966"
   inkscape:version="1.0 (4035a4fb49, 2020-05-01)"
   sodipodi:docname="pdf.svg"
   xml:space="preserve"
   viewBox="0 0 506.58967 571.77466"
   y="0px"
   x="0px"
   id="Layer_1"
   version="1.1"
   inkscape:export-filename="C:\Users\etamburini\Desktop\icone Barlo\pdf.png"
   inkscape:export-xdpi="96"
   inkscape:export-ydpi="96"><metadata
   id="metadata13"><rdf:RDF><cc:Work
       rdf:about=""><dc:format>image/svg+xml</dc:format><dc:type
         rdf:resource="http://purl.org/dc/dcmitype/StillImage" /><dc:title>pdf-glyph</dc:title></cc:Work></rdf:RDF></metadata><defs
   id="defs11" /><sodipodi:namedview
   inkscape:current-layer="Layer_1"
   inkscape:window-maximized="1"
   inkscape:window-y="-8"
   inkscape:window-x="-8"
   inkscape:cy="256"
   inkscape:cx="204.8"
   inkscape:zoom="1.0507812"
   showgrid="false"
   id="namedview9"
   inkscape:window-height="1017"
   inkscape:window-width="1920"
   inkscape:pageshadow="2"
   inkscape:pageopacity="0"
   guidetolerance="10"
   gridtolerance="10"
   objecttolerance="10"
   borderopacity="1"
   bordercolor="#666666"
   pagecolor="#ffffff"
   inkscape:document-rotation="0" />
<style
   id="style2"
   type="text/css">
	.st0{fill:#BB0706;}
</style>
<title
   id="title4">pdf-glyph</title>
<path
   id="path6"
   d="m 202.3,329.2 c 4.7,7.4 9.9,14.4 15.5,21.1 -3.1,0.6 -7.5,1.6 -13.6,3 -5.4,1.4 -9.7,2.7 -13,3.9 l 2.3,-5.3 c 3.4,-7.5 6.7,-16.7 8.8,-22.7 z m -3,-65.1 c -0.1,-9.8 -2.7,-9.8 -3.8,-9.8 -1.7,0 -4.2,3.6 -4.2,13.4 0.1,7.1 1.3,14.1 3.5,20.8 2,-7.2 4.5,-17.9 4.5,-24.4 z m -72.4,142.3 c -0.2,0.9 -0.1,1.4 1,2.1 v 0 c 1.2,0.7 2.6,0.9 3.9,0.4 7.3,-2.1 16.5,-15.4 22.2,-25.1 -9.9,5.2 -25.7,16.1 -27.1,22.6 z m 116.5,-49.1 c 10.9,8.4 23.7,12.1 29.5,9.6 1.9,-0.8 2.8,-2.3 2.8,-4.7 0,-1.1 -0.5,-2.1 -1.4,-2.8 -4.7,-4 -19.5,-3.6 -30.9,-2.1 z M 409.6,153.6 V 448 c 0,35.3 -28.7,64 -64,64 H 64 C 28.7,512 0,483.3 0,448 V 64 C 0,28.7 28.7,0 64,0 h 192.1 z m -115.3,210 v 0 c -0.3,-3.3 -3.4,-19.3 -30.7,-18.6 -19.3,0.5 -28.1,1.5 -31.5,2.1 -4.1,-4.4 -18.4,-20.2 -24.6,-33.1 1.7,-5.4 8.4,-27.4 8.1,-42.2 -0.3,-13.4 -2.8,-28.6 -19.3,-28.6 H 196 c -4.8,0.1 -8.6,1.6 -11.3,4.6 -4.3,4.8 -5.5,12.6 -4.2,26.3 1.3,13 7,27.7 8.6,31.7 -1.3,4.1 -6.4,19.5 -12.7,34.7 -5.9,14.3 -10.4,23.1 -11.9,26 -5.2,1.9 -26.1,9.8 -36.2,19.4 -9.4,9 -17.9,19.6 -10,30.6 2.6,3.7 7.6,5.9 13.2,5.9 h 0.2 c 10.1,0 20.9,-6.7 29.6,-18.3 13.1,-17.6 20.1,-29.5 22.2,-33.2 5,-1.4 23.5,-6.6 29.8,-8.1 5.4,-1.3 11.7,-2.5 14.5,-3 4.9,4.8 24.4,22 43.8,21.4 9,-0.3 15.5,-2.7 19.3,-7.1 2.5,-3 3.8,-6.7 3.4,-10.5 z M 384,166.4 243.2,25.6 v 76.8 c 0,35.3 28.7,64 64,64 z"
   class="st0" />
<path
   id="path832"
   d="m 122.94645,419.44982 c -5.06526,-3.44739 -7.01806,-6.77866 -7.01806,-11.97209 0,-12.04474 16.19438,-27.11277 39.27879,-36.54688 l 9.93681,-4.06096 3.97654,-8.56505 c 5.28875,-11.39142 12.81753,-30.04702 17.06031,-42.27379 l 3.44124,-9.91691 -2.85777,-8.64071 c -4.37547,-13.22961 -5.9,-21.11519 -5.99424,-31.00503 -0.10253,-10.76108 1.1558,-15.11585 5.45972,-18.89475 3.80416,-3.34009 7.71531,-4.36218 13.41926,-3.50682 12.25998,1.8385 17.81046,17.46254 14.30813,40.27596 -0.9028,5.88061 -2.86361,15.04551 -4.35735,20.36645 l -2.71591,9.67443 3.6443,5.99865 c 4.4036,7.24847 10.83346,15.6981 16.90187,22.21114 l 4.49259,4.82177 13.32342,-1.08782 c 14.71691,-1.20161 28.41613,-0.72356 34.26022,1.19554 2.09368,0.68754 5.80099,3.1806 8.23846,5.54014 17.10436,16.55752 -4.87951,34.19451 -31.01405,24.88163 -6.73826,-2.40115 -13.96335,-6.66291 -21.19556,-12.50234 -2.91718,-2.35539 -5.87693,-4.70227 -6.57722,-5.21528 -2.45488,-1.79838 -44.7384,8.73858 -46.52226,11.59324 -18.51941,29.63605 -30.8146,44.04653 -40.71972,47.72519 -7.3998,2.74822 -14.64521,2.71127 -18.76952,-0.0957 z m 12.93388,-12.18117 c 3.57282,-2.20813 8.69663,-8.13504 14.51723,-16.79263 6.04394,-8.98979 5.426,-9.11962 -6.24617,-1.31223 -12.41095,8.30156 -19.57232,16.6029 -16.75412,19.4211 1.24448,1.24448 5.37729,0.60322 8.48306,-1.31624 z m 139.04768,-41.43572 c 2.20988,-3.02219 1.51689,-5.90914 -1.84548,-7.68819 -3.47652,-1.83945 -18.66194,-2.88337 -25.97984,-1.78598 -5.208,0.78098 -4.77453,1.74193 2.59513,5.753 11.04518,6.01154 22.33758,7.67705 25.23019,3.72117 z m -69.17634,-12.09549 c 6.54275,-1.61359 12.0439,-3.03565 12.22476,-3.16013 0.69699,-0.4797 -15.35085,-21.2433 -16.07343,-20.79672 -0.42029,0.25976 -1.50238,2.71557 -2.40464,5.45737 -0.90227,2.7418 -3.2904,8.80615 -5.30697,13.47635 -2.01657,4.67018 -3.66648,8.67734 -3.66648,8.90478 0,0.22745 0.74944,0.10724 1.66542,-0.26715 0.91599,-0.37438 7.01859,-2.00091 13.56134,-3.6145 z m -7.16608,-80.06606 c 2.09077,-12.32601 1.0631,-19.57473 -2.77516,-19.57473 -3.22663,0 -4.8104,4.63506 -4.71512,13.79926 0.0726,6.9857 1.71517,17.7362 3.04825,19.95101 0.9357,1.55459 2.76294,-4.27652 4.44203,-14.17554 z"
   style="fill:#ffffff;stroke:#ffffff;stroke-width:0.999999;paint-order:fill markers stroke" /><path
   id="path834"
   d="m 292.00985,164.08223 c -17.7825,-4.3044 -33.69888,-17.45548 -41.94123,-34.65437 -6.03768,-12.59852 -6.33381,-15.59746 -6.03822,-61.148135 l 0.26403,-40.686812 68.99382,68.999081 68.99383,68.999076 -42.34699,-0.0793 c -33.09158,-0.0619 -43.56617,-0.37441 -47.92524,-1.42956 z"
   style="fill:#ffffff;stroke:#ffffff;stroke-width:0.999999;paint-order:fill markers stroke" /></svg>
