<?xml version="1.0" encoding="UTF-8" standalone="no"?>
<svg
   xmlns:dc="http://purl.org/dc/elements/1.1/"
   xmlns:cc="http://creativecommons.org/ns#"
   xmlns:rdf="http://www.w3.org/1999/02/22-rdf-syntax-ns#"
   xmlns:svg="http://www.w3.org/2000/svg"
   xmlns="http://www.w3.org/2000/svg"
   xmlns:sodipodi="http://sodipodi.sourceforge.net/DTD/sodipodi-0.dtd"
   xmlns:inkscape="http://www.inkscape.org/namespaces/inkscape"
   inkscape:version="1.0 (4035a4fb49, 2020-05-01)"
   sodipodi:docname="pdf_seen.svg"
   xml:space="preserve"
   viewBox="0 0 506.58966 571.77466"
   y="0px"
   x="0px"
   id="Layer_1"
   version="1.1"
   width="506.58966"
   height="571.77466"
   inkscape:export-filename="C:\Users\etamburini\Desktop\icone Barlo\pdf_letto.png"
   inkscape:export-xdpi="96"
   inkscape:export-ydpi="96"><metadata
   id="metadata13"><rdf:RDF><cc:Work
       rdf:about=""><dc:format>image/svg+xml</dc:format><dc:type
         rdf:resource="http://purl.org/dc/dcmitype/StillImage" /><dc:title>pdf-glyph</dc:title></cc:Work></rdf:RDF></metadata><defs
   id="defs11" /><sodipodi:namedview
   inkscape:current-layer="Layer_1"
   inkscape:window-maximized="1"
   inkscape:window-y="-8"
   inkscape:window-x="-8"
   inkscape:cy="370.20075"
   inkscape:cx="209.57691"
   inkscape:zoom="1.0507812"
   showgrid="false"
   id="namedview9"
   inkscape:window-height="1017"
   inkscape:window-width="1920"
   inkscape:pageshadow="2"
   inkscape:pageopacity="0"
   guidetolerance="10"
   gridtolerance="10"
   objecttolerance="10"
   borderopacity="1"
   bordercolor="#666666"
   pagecolor="#ffffff"
   inkscape:document-rotation="0" />
<style
   id="style2"
   type="text/css">
	.st0{fill:#BB0706;}
</style>
<title
   id="title4">pdf-glyph</title>
<path
   id="path6"
   d="m 202.3,329.2 c 4.7,7.4 9.9,14.4 15.5,21.1 -3.1,0.6 -7.5,1.6 -13.6,3 -5.4,1.4 -9.7,2.7 -13,3.9 l 2.3,-5.3 c 3.4,-7.5 6.7,-16.7 8.8,-22.7 z m -3,-65.1 c -0.1,-9.8 -2.7,-9.8 -3.8,-9.8 -1.7,0 -4.2,3.6 -4.2,13.4 0.1,7.1 1.3,14.1 3.5,20.8 2,-7.2 4.5,-17.9 4.5,-24.4 z m -72.4,142.3 c -0.2,0.9 -0.1,1.4 1,2.1 v 0 c 1.2,0.7 2.6,0.9 3.9,0.4 7.3,-2.1 16.5,-15.4 22.2,-25.1 -9.9,5.2 -25.7,16.1 -27.1,22.6 z m 116.5,-49.1 c 10.9,8.4 23.7,12.1 29.5,9.6 1.9,-0.8 2.8,-2.3 2.8,-4.7 0,-1.1 -0.5,-2.1 -1.4,-2.8 -4.7,-4 -19.5,-3.6 -30.9,-2.1 z M 409.6,153.6 V 448 c 0,35.3 -28.7,64 -64,64 H 64 C 28.7,512 0,483.3 0,448 V 64 C 0,28.7 28.7,0 64,0 h 192.1 z m -115.3,210 v 0 c -0.3,-3.3 -3.4,-19.3 -30.7,-18.6 -19.3,0.5 -28.1,1.5 -31.5,2.1 -4.1,-4.4 -18.4,-20.2 -24.6,-33.1 1.7,-5.4 8.4,-27.4 8.1,-42.2 -0.3,-13.4 -2.8,-28.6 -19.3,-28.6 H 196 c -4.8,0.1 -8.6,1.6 -11.3,4.6 -4.3,4.8 -5.5,12.6 -4.2,26.3 1.3,13 7,27.7 8.6,31.7 -1.3,4.1 -6.4,19.5 -12.7,34.7 -5.9,14.3 -10.4,23.1 -11.9,26 -5.2,1.9 -26.1,9.8 -36.2,19.4 -9.4,9 -17.9,19.6 -10,30.6 2.6,3.7 7.6,5.9 13.2,5.9 h 0.2 c 10.1,0 20.9,-6.7 29.6,-18.3 13.1,-17.6 20.1,-29.5 22.2,-33.2 5,-1.4 23.5,-6.6 29.8,-8.1 5.4,-1.3 11.7,-2.5 14.5,-3 4.9,4.8 24.4,22 43.8,21.4 9,-0.3 15.5,-2.7 19.3,-7.1 2.5,-3 3.8,-6.7 3.4,-10.5 z M 384,166.4 243.2,25.6 v 76.8 c 0,35.3 28.7,64 64,64 z"
   class="st0" />
<g
   id="g850"
   transform="translate(-101.92152,77.46423)"><path
     d="m 511.04835,309.38477 c -48.2375,0 -87.46283,39.22766 -87.46283,87.46283 0,48.2375 39.22533,87.46283 87.46283,87.46283 48.2375,0 87.46283,-39.22533 87.46283,-87.46283 0,-48.23517 -39.22533,-87.46283 -87.46283,-87.46283 z"
     style="clip-rule:evenodd;fill:#f83937;fill-opacity:1;fill-rule:evenodd;stroke:#ffffff;stroke-width:20;stroke-linejoin:round;stroke-miterlimit:1.41421;stroke-dasharray:none;stroke-opacity:1"
     id="path2" /><g
     transform="matrix(2.3323421,0,0,2.3323421,393.87848,250.54211)"
     style="clip-rule:evenodd;fill:#ffffff;fill-opacity:1;fill-rule:evenodd;stroke-width:4.28754;stroke-linejoin:round;stroke-miterlimit:1.41421;stroke-dasharray:none"
     id="g6"><path
       d="m 66.637,48.229 -20.8,19.8 -11.9,-11.9 -5.7,5.6 14.7,14.7 c 0.8,0.8 1.8,1.2 2.8,1.2 1,0 2,-0.4 2.8,-1.1 l 23.7,-22.5 z"
       style="fill:#ffffff;fill-opacity:1;fill-rule:nonzero;stroke-width:4.28754;stroke-miterlimit:1.41421;stroke-dasharray:none"
       id="path4" /></g></g><path
   id="path836"
   d="m 122.965,419.44982 c -5.06526,-3.44738 -7.01806,-6.77866 -7.01806,-11.97209 0,-12.04474 16.19437,-27.11277 39.27878,-36.54688 l 9.93681,-4.06096 3.97654,-8.56505 c 5.28875,-11.39142 12.81754,-30.04702 17.06031,-42.27379 l 3.44124,-9.91691 -2.85777,-8.64071 c -4.35953,-13.18142 -5.88493,-21.04139 -6.01221,-30.97923 -0.13761,-10.74495 1.12216,-15.09633 5.4777,-18.92054 3.80415,-3.3401 7.71531,-4.36219 13.41925,-3.50683 12.25999,1.8385 17.81047,17.46254 14.30813,40.27596 -0.90279,5.88061 -2.8636,15.04551 -4.35735,20.36645 l -2.7159,9.67443 3.6443,5.99865 c 4.4036,7.24847 10.83345,15.6981 16.90186,22.21114 l 4.49259,4.82178 13.32342,-1.08783 c 14.71691,-1.20161 28.41614,-0.72356 34.26023,1.19555 5.20996,1.71087 12.39002,8.84682 13.68263,13.59858 2.15933,7.93792 -2.85507,15.24043 -12.41444,18.07925 -8.73639,2.59443 -18.06369,1.58673 -28.64752,-3.095 -5.29541,-2.34241 -17.48627,-10.59453 -20.69136,-14.00619 -1.34523,-1.43194 -3.27983,-2.36725 -4.89638,-2.36725 -2.47315,0 -30.3867,6.84624 -39.53968,9.69773 -3.57063,1.11238 -4.57798,2.16813 -9.36185,9.81156 -14.92035,23.83903 -26.47168,36.75298 -36.09588,40.35386 -7.21438,2.69924 -14.49919,2.64217 -18.59539,-0.14568 z m 12.93387,-12.18117 c 3.57282,-2.20813 8.69664,-8.13504 14.51724,-16.79263 6.04394,-8.98979 5.426,-9.11962 -6.24617,-1.31223 -12.41096,8.30156 -19.57233,16.6029 -16.75412,19.4211 1.24447,1.24448 5.37729,0.60322 8.48305,-1.31624 z m 139.04768,-41.43572 c 2.20988,-3.02219 1.51689,-5.90914 -1.84547,-7.68819 -3.47652,-1.83945 -18.66195,-2.88337 -25.97985,-1.78598 -5.208,0.78098 -4.77453,1.74194 2.59513,5.753 11.04518,6.01155 22.33758,7.67705 25.23019,3.72117 z m -69.17633,-12.09549 c 6.54275,-1.61359 12.04511,-3.03688 12.22747,-3.16285 0.67776,-0.46819 -15.40484,-21.20888 -16.10845,-20.77403 -0.40252,0.24877 -1.47007,2.69561 -2.37234,5.4374 -0.90226,2.7418 -3.2904,8.80616 -5.30696,13.47635 -2.01657,4.67018 -3.66649,8.67734 -3.66649,8.90478 0,0.22745 0.74944,0.10724 1.66543,-0.26715 0.91598,-0.37438 7.01859,-2.00091 13.56134,-3.6145 z m -8.04039,-75.37313 c 1.81658,-8.21463 2.29575,-17.45568 1.12263,-21.65055 -1.08434,-3.87743 -4.80575,-3.60617 -6.52812,0.47583 -1.63088,3.86518 -1.57582,17.38578 0.0999,24.52187 2.10051,8.94524 2.66622,8.58836 5.30562,-3.34715 z"
   style="fill:#ffffff;stroke:#ffffff;stroke-width:0.999999;paint-order:fill markers stroke" /><path
   id="path838"
   d="m 292.02839,164.08224 c -17.78249,-4.30441 -33.69888,-17.45549 -41.94123,-34.65438 -6.03767,-12.59852 -6.33381,-15.59746 -6.03822,-61.148134 l 0.26403,-40.686812 68.99383,68.999081 68.99382,68.999075 -42.34699,-0.0793 c -33.09158,-0.0619 -43.56617,-0.37441 -47.92524,-1.42955 z"
   style="fill:#ffffff;stroke:#ffffff;stroke-width:0.999999;paint-order:fill markers stroke" /></svg>
