<?xml version="1.0" encoding="UTF-8" standalone="no"?>
<!-- Uploaded to: SVG Repo, www.svgrepo.com, Generator: SVG Repo Mixer Tools -->

<svg
   fill="#000000"
   width="800px"
   height="800px"
   viewBox="0 0 32 32"
   version="1.1"
   id="svg3093"
   sodipodi:docname="flag-svgrepo-com.svg"
   inkscape:version="1.2.2 (732a01da63, 2022-12-09)"
   xmlns:inkscape="http://www.inkscape.org/namespaces/inkscape"
   xmlns:sodipodi="http://sodipodi.sourceforge.net/DTD/sodipodi-0.dtd"
   xmlns="http://www.w3.org/2000/svg"
   xmlns:svg="http://www.w3.org/2000/svg">
  <defs
     id="defs3097" />
  <sodipodi:namedview
     id="namedview3095"
     pagecolor="#ffffff"
     bordercolor="#999999"
     borderopacity="1"
     inkscape:showpageshadow="0"
     inkscape:pageopacity="0"
     inkscape:pagecheckerboard="0"
     inkscape:deskcolor="#d1d1d1"
     showgrid="false"
     inkscape:zoom="1.04625"
     inkscape:cx="400.4779"
     inkscape:cy="390.91995"
     inkscape:window-width="1920"
     inkscape:window-height="1017"
     inkscape:window-x="-8"
     inkscape:window-y="-8"
     inkscape:window-maximized="1"
     inkscape:current-layer="svg3093" />
  <path
     d="M21.25 2.979c-5 0-6.333-3-12.666-3-4.084 0-6.584 3.084-6.584 3.084v27.958c0 0.552 0.448 1 1 1s1-0.448 1-1v-12.746c1.055-0.68 2.511-1.296 4.334-1.296 6.333 0 8.166 3 13.166 3s8.5-3 8.5-3v-17s-3.75 3-8.75 3zM28 15.96c-1.13 0.737-3.524 2.019-6.5 2.019-1.966 0-3.308-0.54-5.007-1.223-2.071-0.832-4.419-1.777-8.159-1.777-1.709 0-3.159 0.43-4.334 1.005v-12.108c0.753-0.685 2.394-1.897 4.584-1.897 2.941 0 4.597 0.714 6.35 1.469 1.746 0.752 3.552 1.531 6.316 1.531 2.664 0 5.004-0.737 6.75-1.529v12.509z"
     id="path3091" />
  <path
     style="fill:#ff0000;stroke-width:24.4683;stroke-opacity:0"
     d="m 513.73955,448.69673 c -11.01983,-1.12877 -27.14473,-4.15004 -38.70968,-7.25292 -15.20273,-4.07889 -27.68761,-8.53804 -63.08244,-22.53081 -73.09813,-28.89815 -110.90901,-38.59596 -167.13917,-42.8682 -22.22026,-1.68824 -61.61474,-0.72474 -76.11053,1.86148 -21.51777,3.83904 -40.00995,9.27008 -57.53299,16.8971 -5.35879,2.33246 -10.1975,4.24083 -10.75269,4.24083 -0.70444,0 -1.009422,-45.6129 -1.009422,-150.96923 V 97.105754 l 6.929512,-5.866622 c 22.49712,-19.046384 50.68984,-32.874725 80.16286,-39.319351 8.84589,-1.934261 12.4579,-2.165229 33.33774,-2.131759 25.28331,0.04053 41.59904,1.515477 63.19269,5.712649 27.33706,5.313522 44.72413,11.177202 90.9217,30.662782 54.45959,22.970397 74.09642,29.164667 110.64068,34.900657 12.43336,1.95154 17.25111,2.17625 46.83393,2.18438 28.97719,0.008 34.77737,-0.24787 47.84236,-2.11032 36.87868,-5.25716 70.47329,-14.33622 104.12897,-28.141211 7.62246,-3.126606 14.613,-5.918121 15.53452,-6.20337 1.59277,-0.493025 1.66356,7.208997 1.43369,155.988521 l -0.24181,156.50714 -9.55794,5.78379 c -35.20552,21.30388 -74.89873,35.68046 -115.65114,41.88795 -14.37614,2.18981 -47.54851,3.13108 -61.17084,1.73574 z"
     id="path6085"
     transform="scale(0.04)" />
</svg>
