<?xml version="1.0" encoding="iso-8859-1"?>
<!-- Generator: Adobe Illustrator 19.0.0, SVG Export Plug-In . SVG Version: 6.00 Build 0)  -->
<svg version="1.1" id="Capa_1" xmlns="http://www.w3.org/2000/svg" xmlns:xlink="http://www.w3.org/1999/xlink" x="0px" y="0px"
	 viewBox="0 0 51.809 51.809" style="enable-background:new 0 0 51.809 51.809;" xml:space="preserve">
<g>
	<g>
		<path d="M48.881,24.904c-0.552,0-1,0.447-1,1c0,12.131-9.869,22-22,22c-8.611,0-16.304-4.944-19.919-12.677l5.193,2.312
			c0.504,0.228,1.096-0.001,1.32-0.507c0.225-0.504-0.002-1.095-0.507-1.319l-7.309-3.254c-0.506-0.229-1.095,0.002-1.32,0.507
			l-3.254,7.309c-0.225,0.504,0.002,1.095,0.507,1.319c0.132,0.06,0.271,0.087,0.406,0.087c0.383,0,0.748-0.221,0.914-0.594
			l2.235-5.02c3.941,8.44,12.335,13.837,21.732,13.837c13.233,0,24-10.767,24-24C49.881,25.352,49.433,24.904,48.881,24.904z"/>
		<path d="M51.215,10.173c-0.506-0.227-1.096,0.002-1.32,0.507l-2.266,5.09C43.694,7.307,35.306,1.904,25.881,1.904
			c-13.233,0-24,10.767-24,24c0,0.553,0.448,1,1,1s1-0.447,1-1c0-12.131,9.869-22,22-22c8.599,0,16.259,4.906,19.887,12.6
			l-5.116-2.277c-0.505-0.229-1.096,0.002-1.32,0.507c-0.225,0.504,0.002,1.095,0.507,1.319l7.309,3.254
			c0.132,0.06,0.271,0.087,0.406,0.087c0.383,0,0.748-0.221,0.914-0.594l3.254-7.309C51.946,10.988,51.719,10.397,51.215,10.173z"/>
	</g>
</g>
<g>
</g>
<g>
</g>
<g>
</g>
<g>
</g>
<g>
</g>
<g>
</g>
<g>
</g>
<g>
</g>
<g>
</g>
<g>
</g>
<g>
</g>
<g>
</g>
<g>
</g>
<g>
</g>
<g>
</g>
</svg>
