<?xml version="1.0" encoding="UTF-8" standalone="no"?>
<svg
   xmlns:dc="http://purl.org/dc/elements/1.1/"
   xmlns:cc="http://creativecommons.org/ns#"
   xmlns:rdf="http://www.w3.org/1999/02/22-rdf-syntax-ns#"
   xmlns:svg="http://www.w3.org/2000/svg"
   xmlns="http://www.w3.org/2000/svg"
   xmlns:sodipodi="http://sodipodi.sourceforge.net/DTD/sodipodi-0.dtd"
   xmlns:inkscape="http://www.inkscape.org/namespaces/inkscape"
   inkscape:version="1.0 (4035a4fb49, 2020-05-01)"
   sodipodi:docname="refresh-v2.svg"
   xml:space="preserve"
   style="enable-background:new 0 0 51.809 51.809;"
   viewBox="0 0 51.809 51.809"
   y="0px"
   x="0px"
   id="Capa_1"
   version="1.1"><metadata
   id="metadata45"><rdf:RDF><cc:Work
       rdf:about=""><dc:format>image/svg+xml</dc:format><dc:type
         rdf:resource="http://purl.org/dc/dcmitype/StillImage" /><dc:title></dc:title></cc:Work></rdf:RDF></metadata><defs
   id="defs43">
	

		
		
	</defs><sodipodi:namedview
   inkscape:current-layer="Capa_1"
   inkscape:window-maximized="1"
   inkscape:window-y="-8"
   inkscape:window-x="-8"
   inkscape:cy="25.904499"
   inkscape:cx="25.904499"
   inkscape:zoom="16.406416"
   showgrid="false"
   id="namedview41"
   inkscape:window-height="1017"
   inkscape:window-width="1920"
   inkscape:pageshadow="2"
   inkscape:pageopacity="0"
   guidetolerance="10"
   gridtolerance="10"
   objecttolerance="10"
   borderopacity="1"
   bordercolor="#666666"
   pagecolor="#ffffff" />
<path
   style="fill:#ffffff;fill-opacity:1"
   id="path2"
   d="m 48.881,24.904 c -0.552,0 -1,0.447 -1,1 0,12.131 -9.869,22 -22,22 -8.611,0 -16.304,-4.944 -19.919,-12.677 l 5.193,2.312 c 0.504,0.228 1.096,-0.001 1.32,-0.507 0.225,-0.504 -0.002,-1.095 -0.507,-1.319 L 4.659,32.459 C 4.153,32.23 3.564,32.461 3.339,32.966 l -3.254,7.309 c -0.225,0.504 0.002,1.095 0.507,1.319 0.132,0.06 0.271,0.087 0.406,0.087 0.383,0 0.748,-0.221 0.914,-0.594 l 2.235,-5.02 c 3.941,8.44 12.335,13.837 21.732,13.837 13.233,0 24,-10.767 24,-24 0.002,-0.552 -0.446,-1 -0.998,-1 z" /><path
   style="fill:#ffffff;fill-opacity:1"
   id="path4"
   d="m 51.215,10.173 c -0.506,-0.227 -1.096,0.002 -1.32,0.507 l -2.266,5.09 C 43.694,7.307 35.306,1.904 25.881,1.904 c -13.233,0 -24,10.767 -24,24 0,0.553 0.448,1 1,1 0.552,0 1,-0.447 1,-1 0,-12.131 9.869,-22 22,-22 8.599,0 16.259,4.906 19.887,12.6 l -5.116,-2.277 c -0.505,-0.229 -1.096,0.002 -1.32,0.507 -0.225,0.504 0.002,1.095 0.507,1.319 l 7.309,3.254 c 0.132,0.06 0.271,0.087 0.406,0.087 0.383,0 0.748,-0.221 0.914,-0.594 l 3.254,-7.309 c 0.224,-0.503 -0.003,-1.094 -0.507,-1.318 z" />
<g
   id="g10">
</g>
<g
   id="g12">
</g>
<g
   id="g14">
</g>
<g
   id="g16">
</g>
<g
   id="g18">
</g>
<g
   id="g20">
</g>
<g
   id="g22">
</g>
<g
   id="g24">
</g>
<g
   id="g26">
</g>
<g
   id="g28">
</g>
<g
   id="g30">
</g>
<g
   id="g32">
</g>
<g
   id="g34">
</g>
<g
   id="g36">
</g>
<g
   id="g38">
</g>
</svg>
