<?xml version="1.0" encoding="UTF-8" standalone="no"?>
<svg
   xmlns:dc="http://purl.org/dc/elements/1.1/"
   xmlns:cc="http://creativecommons.org/ns#"
   xmlns:rdf="http://www.w3.org/1999/02/22-rdf-syntax-ns#"
   xmlns:svg="http://www.w3.org/2000/svg"
   xmlns="http://www.w3.org/2000/svg"
   xmlns:sodipodi="http://sodipodi.sourceforge.net/DTD/sodipodi-0.dtd"
   xmlns:inkscape="http://www.inkscape.org/namespaces/inkscape"
   inkscape:version="1.0 (4035a4fb49, 2020-05-01)"
   sodipodi:docname="Refresh.svg"
   xml:space="preserve"
   viewBox="0 0 32 32"
   version="1.1"
   style="enable-background:new 0 0 32 32;"
   id="Layer_1"><metadata
     id="metadata9"><rdf:RDF><cc:Work
         rdf:about=""><dc:format>image/svg+xml</dc:format><dc:type
           rdf:resource="http://purl.org/dc/dcmitype/StillImage" /><dc:title></dc:title></cc:Work></rdf:RDF></metadata><defs
     id="defs7" /><sodipodi:namedview
     inkscape:current-layer="Layer_1"
     inkscape:window-maximized="1"
     inkscape:window-y="-8"
     inkscape:window-x="-8"
     inkscape:cy="16"
     inkscape:cx="16"
     inkscape:zoom="16.8125"
     showgrid="false"
     id="namedview5"
     inkscape:window-height="705"
     inkscape:window-width="1366"
     inkscape:pageshadow="2"
     inkscape:pageopacity="0"
     guidetolerance="10"
     gridtolerance="10"
     objecttolerance="10"
     borderopacity="1"
     bordercolor="#666666"
     pagecolor="#ffffff" /><path
     style="fill:#ffa602;fill-opacity:1"
     id="path2"
     d="M28,16c-1.219,0-1.797,0.859-2,1.766C25.269,21.03,22.167,26,16,26c-5.523,0-10-4.478-10-10S10.477,6,16,6  c2.24,0,4.295,0.753,5.96,2H20c-1.104,0-2,0.896-2,2s0.896,2,2,2h6c1.104,0,2-0.896,2-2V4c0-1.104-0.896-2-2-2s-2,0.896-2,2v0.518  C21.733,2.932,18.977,2,16,2C8.268,2,2,8.268,2,16s6.268,14,14,14c9.979,0,14-9.5,14-11.875C30,16.672,28.938,16,28,16z" /></svg>
