<?xml version="1.0" encoding="UTF-8" standalone="no"?>
<svg
   xmlns:dc="http://purl.org/dc/elements/1.1/"
   xmlns:cc="http://creativecommons.org/ns#"
   xmlns:rdf="http://www.w3.org/1999/02/22-rdf-syntax-ns#"
   xmlns:svg="http://www.w3.org/2000/svg"
   xmlns="http://www.w3.org/2000/svg"
   xmlns:sodipodi="http://sodipodi.sourceforge.net/DTD/sodipodi-0.dtd"
   xmlns:inkscape="http://www.inkscape.org/namespaces/inkscape"
   inkscape:version="1.0 (4035a4fb49, 2020-05-01)"
   sodipodi:docname="sun-svgrepo-com (2).svg"
   xml:space="preserve"
   enable-background="new 0 0 64 64"
   viewBox="0 0 64 64"
   y="0px"
   x="0px"
   id="Layer_1"
   version="1.1"><metadata
   id="metadata56"><rdf:RDF><cc:Work
       rdf:about=""><dc:format>image/svg+xml</dc:format><dc:type
         rdf:resource="http://purl.org/dc/dcmitype/StillImage" /></cc:Work></rdf:RDF></metadata><defs
   id="defs54">
	
	
	
	
	
	
	
	
	
</defs><sodipodi:namedview
   inkscape:current-layer="Layer_1"
   inkscape:window-maximized="1"
   inkscape:window-y="-8"
   inkscape:window-x="-8"
   inkscape:cy="31.110698"
   inkscape:cx="32"
   inkscape:zoom="13.28125"
   showgrid="false"
   id="namedview52"
   inkscape:window-height="1017"
   inkscape:window-width="1920"
   inkscape:pageshadow="2"
   inkscape:pageopacity="0"
   guidetolerance="10"
   gridtolerance="10"
   objecttolerance="10"
   borderopacity="1"
   bordercolor="#666666"
   pagecolor="#ffffff" />
<path
   style="fill:#ffffff;fill-opacity:1"
   d="m 32.131851,18.279301 c -7.711901,0 -13.986301,6.274398 -13.986301,13.986297 0,7.711899 6.2744,13.986401 13.986301,13.986401 7.711901,0 13.986298,-6.274498 13.986298,-13.986401 0,-7.711902 -6.274399,-13.986297 -13.986298,-13.986297 z m 0,26 c -6.6245,0 -12.0137,-5.389702 -12.0137,-12.013703 0,-6.624 5.3892,-12.013597 12.0137,-12.013597 6.6245,0 12.013699,5.389599 12.013699,12.013597 0,6.623999 -5.389199,12.013703 -12.013699,12.013703 z"
   id="path2" /><path
   style="fill:#ffffff;fill-opacity:1"
   d="m 32.00005,13.1689 c 0.5522,0 1,-0.4472 1,-1 V 1 c 0,-0.5527 -0.4478,-1 -1,-1 -0.5523,0 -1,0.4473 -1,1 v 11.1689 c 0,0.5528 0.4477,1 1,1 z"
   id="path4" /><path
   style="fill:#ffffff;fill-opacity:1"
   d="m 32.00005,50.830101 c -0.5523,0 -1,0.447201 -1,1 V 63 c 0,0.5527 0.4477,1 1,1 0.5522,0 1,-0.4473 1,-1 V 51.830101 c 0,-0.552799 -0.4478,-1 -1,-1 z"
   id="path6" /><path
   style="fill:#ffffff;fill-opacity:1"
   d="M 62.263649,30.445299 H 51.09375 c -0.5522,0 -1,0.4473 -1,1 0,0.5527 0.4478,1.000002 1,1.000002 h 11.169899 c 0.552299,0 1,-0.447302 1,-1.000002 0,-0.5527 -0.447701,-1 -1,-1 z"
   id="path8" /><path
   style="fill:#ffffff;fill-opacity:1"
   d="m 13.90625,31.445299 c 0,-0.5527 -0.447794,-1 -0.999999,-1 H 1.7363508 c -0.5523,0 -1,0.4473 -1,1 0,0.5527 0.4477,1.000002 1,1.000002 H 12.906251 c 0.552205,0 0.999999,-0.447302 0.999999,-1.000002 z"
   id="path10" /><path
   style="fill:#ffffff;fill-opacity:1"
   d="m 45.180149,19.877899 c 0.255901,0 0.5117,-0.0976 0.7071,-0.2929 L 53.786148,11.6865 c 0.390602,-0.3906 0.390602,-1.0234 0,-1.414 -0.390598,-0.3907003 -1.023498,-0.3907003 -1.414097,0 l -7.898903,7.8984 c -0.390598,0.3906 -0.390598,1.0234 0,1.414099 0.195309,0.195301 0.451203,0.2929 0.707001,0.2929 z"
   id="path12" /><path
   style="fill:#ffffff;fill-opacity:1"
   d="m 45.887249,45.203098 c -0.390698,-0.390598 -1.023499,-0.390598 -1.414101,0 -0.390598,0.390702 -0.390598,1.023503 0,1.414101 l 7.898903,7.8974 c 0.195298,0.1954 0.451199,0.292999 0.7071,0.292999 0.255799,0 0.5117,-0.0976 0.706997,-0.292999 0.390602,-0.390599 0.390602,-1.0234 0,-1.413998 z"
   id="path14" /><path
   style="fill:#ffffff;fill-opacity:1"
   d="m 18.112751,19.584999 c 0.1954,0.195301 0.451199,0.2929 0.7071,0.2929 0.2558,0 0.5117,-0.0976 0.706999,-0.2929 0.390606,-0.390699 0.390606,-1.023498 0,-1.414099 l -7.8979,-7.8984 c -0.390699,-0.3907003 -1.023495,-0.3907003 -1.4141,0 -0.3905998,0.3906 -0.3905998,1.0234 0,1.414 z"
   id="path16" /><path
   style="fill:#ffffff;fill-opacity:1"
   d="m 19.571251,45.2701 c -0.0177,-0.0208 -0.0246,-0.0472 -0.0444,-0.067 -0.390601,-0.390598 -1.023394,-0.390598 -1.414099,0 l -3.940101,3.940003 -4.034195,3.8447 c -0.3999048,0.381198 -0.4152046,1.0139 -0.034,1.413799 0.01929,0.0203 0.04549,0.0278 0.066,0.046 0.01769,0.0209 0.02459,0.0473 0.04439,0.067 0.195301,0.1954 0.451201,0.292999 0.707,0.292999 0.255901,0 0.511701,-0.0976 0.7071,-0.292999 l 3.940101,-3.9399 4.0342,-3.8447 c 0.3999,-0.381198 0.415205,-1.0139 0.034,-1.413799 -0.0193,-0.0203 -0.0455,-0.0279 -0.066,-0.0461 z"
   id="path18" />
<g
   id="g21">
</g>
<g
   id="g23">
</g>
<g
   id="g25">
</g>
<g
   id="g27">
</g>
<g
   id="g29">
</g>
<g
   id="g31">
</g>
<g
   id="g33">
</g>
<g
   id="g35">
</g>
<g
   id="g37">
</g>
<g
   id="g39">
</g>
<g
   id="g41">
</g>
<g
   id="g43">
</g>
<g
   id="g45">
</g>
<g
   id="g47">
</g>
<g
   id="g49">
</g>
</svg>
