<?xml version="1.0" encoding="UTF-8" standalone="no"?>
<svg
   xmlns:dc="http://purl.org/dc/elements/1.1/"
   xmlns:cc="http://creativecommons.org/ns#"
   xmlns:rdf="http://www.w3.org/1999/02/22-rdf-syntax-ns#"
   xmlns:svg="http://www.w3.org/2000/svg"
   xmlns="http://www.w3.org/2000/svg"
   xmlns:sodipodi="http://sodipodi.sourceforge.net/DTD/sodipodi-0.dtd"
   xmlns:inkscape="http://www.inkscape.org/namespaces/inkscape"
   inkscape:export-ydpi="96"
   inkscape:export-xdpi="96"
   inkscape:export-filename="C:\Users\etamburini\Desktop\icone Barlo\txt_letto.png"
   height="571.77466"
   width="506.58966"
   version="1.1"
   id="Layer_1"
   x="0px"
   y="0px"
   viewBox="0 0 506.58966 571.77466"
   xml:space="preserve"
   sodipodi:docname="text_seen.svg"
   inkscape:version="1.0 (4035a4fb49, 2020-05-01)"><metadata
   id="metadata13"><rdf:RDF><cc:Work
       rdf:about=""><dc:format>image/svg+xml</dc:format><dc:type
         rdf:resource="http://purl.org/dc/dcmitype/StillImage" /><dc:title>font-glyph</dc:title></cc:Work></rdf:RDF></metadata><defs
   id="defs11" /><sodipodi:namedview
   inkscape:document-rotation="0"
   pagecolor="#ffffff"
   bordercolor="#666666"
   borderopacity="1"
   objecttolerance="10"
   gridtolerance="10"
   guidetolerance="10"
   inkscape:pageopacity="0"
   inkscape:pageshadow="2"
   inkscape:window-width="1920"
   inkscape:window-height="1017"
   id="namedview9"
   showgrid="false"
   inkscape:zoom="1.0507812"
   inkscape:cx="283.14936"
   inkscape:cy="344.92775"
   inkscape:window-x="-8"
   inkscape:window-y="-8"
   inkscape:window-maximized="1"
   inkscape:current-layer="Layer_1" />
<style
   type="text/css"
   id="style2">
	.st0{fill:#002D62;}
</style>
<title
   id="title4">font-glyph</title>

<path
   class="st0"
   d="M 256.1,0 H 64 C 28.7,0 0,28.7 0,64 v 384 c 0,35.3 28.7,64 64,64 h 281.6 c 35.3,0 64,-28.7 64,-64 V 153.6 Z m 25.5,294.4 h -12.8 c 0,0 0,-25.6 -51.2,-25.6 v 102.4 c 0,0 0,0.7 0.1,1.8 0.4,7.9 3.3,13.2 7,16.7 3.5,3.8 8.8,6.6 16.7,7 1.1,0.1 1.8,0.1 1.8,0.1 H 256 v 12.8 H 153.6 v -12.8 h 12.8 c 0,0 0.7,0 1.8,-0.1 7.9,-0.4 13.2,-3.3 16.7,-7 3.8,-3.5 6.6,-8.8 7,-16.7 0.1,-1.1 0.1,-1.8 0.1,-1.8 V 268.8 c -51.2,0 -51.2,25.6 -51.2,25.6 H 128 V 256 h 153.6 z m 25.6,-128 c -35.3,0 -64,-28.7 -64,-64 V 25.6 L 384,166.4 Z"
   id="path6"
   style="fill:#339900;fill-opacity:1" /><path
   id="path2"
   style="clip-rule:evenodd;fill:#43c800;fill-opacity:1;fill-rule:evenodd;stroke:#ffffff;stroke-width:20;stroke-linejoin:round;stroke-miterlimit:1.41421;stroke-dasharray:none;stroke-opacity:1"
   d="m 409.12683,386.849 c -48.2375,0 -87.46283,39.22766 -87.46283,87.46283 0,48.2375 39.22533,87.46283 87.46283,87.46283 48.2375,0 87.46283,-39.22533 87.46283,-87.46283 0,-48.23517 -39.22533,-87.46283 -87.46283,-87.46283 z" /><g
   id="g6"
   style="clip-rule:evenodd;fill:#ffffff;fill-opacity:1;fill-rule:evenodd;stroke-width:4.28754;stroke-linejoin:round;stroke-miterlimit:1.41421;stroke-dasharray:none"
   transform="matrix(2.3323421,0,0,2.3323421,291.95696,328.00634)"><path
     id="path4"
     style="fill:#ffffff;fill-opacity:1;fill-rule:nonzero;stroke-width:4.28754;stroke-miterlimit:1.41421;stroke-dasharray:none"
     d="m 66.637,48.229 -20.8,19.8 -11.9,-11.9 -5.7,5.6 14.7,14.7 c 0.8,0.8 1.8,1.2 2.8,1.2 1,0 2,-0.4 2.8,-1.1 l 23.7,-22.5 z" /></g><path
   id="path835"
   d="m 153.72184,402.9798 v -5.71004 h 8.39233 c 4.82422,0 10.51295,-0.62976 13.38013,-1.48122 6.11161,-1.81496 12.08321,-6.98357 14.7815,-12.79387 1.93394,-4.16439 1.99656,-5.80257 2.2703,-59.38521 l 0.2815,-55.10268 -10.7499,0.5439 c -20.24042,1.02407 -33.88263,7.44929 -39.2902,18.50491 l -2.86491,5.85725 -5.94796,0.0623 -5.94795,0.0623 V 274.97982 256.4222 h 76.60967 76.60966 v 18.55762 18.55762 h -6.18587 c -4.93523,0 -6.18587,-0.29627 -6.18587,-1.46542 0,-2.71014 -3.66592,-8.68221 -7.27432,-11.85043 -7.70422,-6.76438 -22.77758,-11.42764 -36.93835,-11.42764 h -7.17767 l 0.005,54.00743 c 0.003,34.26847 0.36511,55.30299 0.98977,57.55218 1.47023,5.29387 6.51708,11.2721 11.81957,14.00085 3.99445,2.05562 6.26442,2.47602 14.98006,2.77434 l 10.27219,0.3516 v 5.60475 5.60476 h -50.9145 -50.91451 z"
   style="fill:#ffffff;stroke:#ffffff;stroke-width:0.999999;paint-order:fill markers stroke" /><path
   id="path837"
   d="m 294.0936,164.45088 c -18.57338,-3.92336 -35.96151,-17.70422 -44.24914,-35.06939 -5.50298,-11.53046 -5.75859,-14.3224 -5.48581,-59.919478 l 0.24796,-41.446901 68.99382,68.999066 68.99383,68.999063 -40.91948,-0.0776 c -32.23698,-0.0611 -42.33299,-0.37616 -47.58118,-1.48477 z"
   style="fill:#ffffff;stroke:#ffffff;stroke-width:0.999999;paint-order:fill markers stroke" /></svg>
