<?xml version="1.0" encoding="UTF-8" standalone="no"?>
<svg
   xmlns:dc="http://purl.org/dc/elements/1.1/"
   xmlns:cc="http://creativecommons.org/ns#"
   xmlns:rdf="http://www.w3.org/1999/02/22-rdf-syntax-ns#"
   xmlns:svg="http://www.w3.org/2000/svg"
   xmlns="http://www.w3.org/2000/svg"
   xmlns:sodipodi="http://sodipodi.sourceforge.net/DTD/sodipodi-0.dtd"
   xmlns:inkscape="http://www.inkscape.org/namespaces/inkscape"
   height="571.77466"
   width="506.58966"
   inkscape:version="1.0 (4035a4fb49, 2020-05-01)"
   sodipodi:docname="text.svg"
   xml:space="preserve"
   viewBox="0 0 506.58966 571.77466"
   y="0px"
   x="0px"
   id="Layer_1"
   version="1.1"
   inkscape:export-filename="C:\Users\etamburini\Desktop\icone Barlo\txt.png"
   inkscape:export-xdpi="96"
   inkscape:export-ydpi="96"><metadata
   id="metadata13"><rdf:RDF><cc:Work
       rdf:about=""><dc:format>image/svg+xml</dc:format><dc:type
         rdf:resource="http://purl.org/dc/dcmitype/StillImage" /><dc:title>font-glyph</dc:title></cc:Work></rdf:RDF></metadata><defs
   id="defs11" /><sodipodi:namedview
   inkscape:current-layer="Layer_1"
   inkscape:window-maximized="1"
   inkscape:window-y="-8"
   inkscape:window-x="-8"
   inkscape:cy="332.13383"
   inkscape:cx="204.8"
   inkscape:zoom="1.0507812"
   showgrid="false"
   id="namedview9"
   inkscape:window-height="1017"
   inkscape:window-width="1920"
   inkscape:pageshadow="2"
   inkscape:pageopacity="0"
   guidetolerance="10"
   gridtolerance="10"
   objecttolerance="10"
   borderopacity="1"
   bordercolor="#666666"
   pagecolor="#ffffff"
   inkscape:document-rotation="0" />
<style
   id="style2"
   type="text/css">
	.st0{fill:#002D62;}
</style>
<title
   id="title4">font-glyph</title>
<path
   style="fill:#339900;fill-opacity:1"
   id="path6"
   d="M 256.1,0 H 64.000001 C 28.700001,0 0,28.7 0,64 v 384 c 0,35.3 28.700001,64 64.000001,64 H 345.6 c 35.3,0 64,-28.7 64,-64 V 153.6 Z m 25.5,294.4 h -12.8 c 0,0 0,-25.6 -51.2,-25.6 v 102.4 c 0,0 0,0.7 0.1,1.8 0.4,7.9 3.3,13.2 7,16.7 3.5,3.8 8.8,6.6 16.7,7 1.1,0.1 1.8,0.1 1.8,0.1 H 256 v 12.8 H 153.6 v -12.8 h 12.8 c 0,0 0.7,0 1.8,-0.1 7.9,-0.4 13.2,-3.3 16.7,-7 3.8,-3.5 6.6,-8.8 7,-16.7 0.1,-1.1 0.1,-1.8 0.1,-1.8 V 268.8 c -51.2,0 -51.2,25.6 -51.2,25.6 H 128 V 256 h 153.6 z m 25.6,-128 c -35.3,0 -64,-28.7 -64,-64 V 25.6 L 384,166.4 Z"
   class="st0" />
<path
   id="path832"
   d="m 154.36134,403.03346 v -6.18587 l 9.75464,-0.01 c 11.56586,-0.0109 17.47379,-2.16654 22.45909,-8.19485 5.80611,-7.02085 5.85318,-7.55824 5.85318,-66.81774 v -53.73984 l -9.27881,0.62745 c -22.39795,1.51458 -36.35369,8.32091 -41.24159,20.11385 l -2.17185,5.23997 h -5.53492 -5.53491 V 275.03346 256 H 204.8 280.93383 v 19.03346 19.03345 h -5.53492 -5.53491 l -2.17185,-5.23997 c -4.86492,-11.73751 -18.94891,-18.60638 -41.24159,-20.11385 l -9.27881,-0.62745 v 53.73984 c 0,59.2595 0.0471,59.79689 5.85318,66.81774 4.9853,6.02831 10.89323,8.18405 22.45909,8.19507 l 9.75464,0.009 v 6.18587 6.18588 H 204.8 154.36134 Z"
   style="fill:#ffffff;stroke:#ffffff;stroke-width:0.999999;paint-order:fill markers stroke" /><path
   id="path834"
   d="m 292.00985,164.08223 c -17.7825,-4.30441 -33.69888,-17.45549 -41.94123,-34.65438 -6.03768,-12.59851 -6.33381,-15.59746 -6.03822,-61.148128 l 0.26403,-40.686811 68.99382,68.99908 68.99383,68.999079 -42.34699,-0.0793 c -33.09158,-0.062 -43.56617,-0.37441 -47.92524,-1.42956 z"
   style="fill:#ffffff;stroke:#ffffff;stroke-width:0.999999;paint-order:fill markers stroke" /></svg>
