<?xml version="1.0" encoding="UTF-8" standalone="no"?>
<svg
   xmlns:dc="http://purl.org/dc/elements/1.1/"
   xmlns:cc="http://creativecommons.org/ns#"
   xmlns:rdf="http://www.w3.org/1999/02/22-rdf-syntax-ns#"
   xmlns:svg="http://www.w3.org/2000/svg"
   xmlns="http://www.w3.org/2000/svg"
   xmlns:sodipodi="http://sodipodi.sourceforge.net/DTD/sodipodi-0.dtd"
   xmlns:inkscape="http://www.inkscape.org/namespaces/inkscape"
   height="571.77466"
   width="506.58966"
   inkscape:version="1.0 (4035a4fb49, 2020-05-01)"
   sodipodi:docname="timbro.svg"
   xml:space="preserve"
   viewBox="0 0 506.58967 571.77466"
   y="0px"
   x="0px"
   id="Layer_1"
   version="1.1"
   inkscape:export-filename="C:\Users\etamburini\Desktop\icone Barlo\pdf.png"
   inkscape:export-xdpi="96"
   inkscape:export-ydpi="96"><metadata
   id="metadata13"><rdf:RDF><cc:Work
       rdf:about=""><dc:format>image/svg+xml</dc:format><dc:type
         rdf:resource="http://purl.org/dc/dcmitype/StillImage" /><dc:title>pdf-glyph</dc:title></cc:Work></rdf:RDF></metadata><defs
   id="defs11" /><sodipodi:namedview
   inkscape:current-layer="Layer_1"
   inkscape:window-maximized="1"
   inkscape:window-y="-8"
   inkscape:window-x="-8"
   inkscape:cy="256"
   inkscape:cx="204.8"
   inkscape:zoom="1.0507812"
   showgrid="false"
   id="namedview9"
   inkscape:window-height="1017"
   inkscape:window-width="1920"
   inkscape:pageshadow="2"
   inkscape:pageopacity="0"
   guidetolerance="10"
   gridtolerance="10"
   objecttolerance="10"
   borderopacity="1"
   bordercolor="#666666"
   pagecolor="#ffffff"
   inkscape:document-rotation="0" />
<style
   id="style2"
   type="text/css">
	.st0{fill:#BB0706;}
</style>
<title
   id="title4">pdf-glyph</title>
<path
   id="path6"
   d="m 202.3,329.2 c 4.7,7.4 9.9,14.4 15.5,21.1 -3.1,0.6 -7.5,1.6 -13.6,3 -5.4,1.4 -9.7,2.7 -13,3.9 l 2.3,-5.3 c 3.4,-7.5 6.7,-16.7 8.8,-22.7 z m -3,-65.1 c -0.1,-9.8 -2.7,-9.8 -3.8,-9.8 -1.7,0 -4.2,3.6 -4.2,13.4 0.1,7.1 1.3,14.1 3.5,20.8 2,-7.2 4.5,-17.9 4.5,-24.4 z m -72.4,142.3 c -0.2,0.9 -0.1,1.4 1,2.1 v 0 c 1.2,0.7 2.6,0.9 3.9,0.4 7.3,-2.1 16.5,-15.4 22.2,-25.1 -9.9,5.2 -25.7,16.1 -27.1,22.6 z m 116.5,-49.1 c 10.9,8.4 23.7,12.1 29.5,9.6 1.9,-0.8 2.8,-2.3 2.8,-4.7 0,-1.1 -0.5,-2.1 -1.4,-2.8 -4.7,-4 -19.5,-3.6 -30.9,-2.1 z M 409.6,153.6 V 448 c 0,35.3 -28.7,64 -64,64 H 64 C 28.7,512 0,483.3 0,448 V 64 C 0,28.7 28.7,0 64,0 h 192.1 z m -115.3,210 v 0 c -0.3,-3.3 -3.4,-19.3 -30.7,-18.6 -19.3,0.5 -28.1,1.5 -31.5,2.1 -4.1,-4.4 -18.4,-20.2 -24.6,-33.1 1.7,-5.4 8.4,-27.4 8.1,-42.2 -0.3,-13.4 -2.8,-28.6 -19.3,-28.6 H 196 c -4.8,0.1 -8.6,1.6 -11.3,4.6 -4.3,4.8 -5.5,12.6 -4.2,26.3 1.3,13 7,27.7 8.6,31.7 -1.3,4.1 -6.4,19.5 -12.7,34.7 -5.9,14.3 -10.4,23.1 -11.9,26 -5.2,1.9 -26.1,9.8 -36.2,19.4 -9.4,9 -17.9,19.6 -10,30.6 2.6,3.7 7.6,5.9 13.2,5.9 h 0.2 c 10.1,0 20.9,-6.7 29.6,-18.3 13.1,-17.6 20.1,-29.5 22.2,-33.2 5,-1.4 23.5,-6.6 29.8,-8.1 5.4,-1.3 11.7,-2.5 14.5,-3 4.9,4.8 24.4,22 43.8,21.4 9,-0.3 15.5,-2.7 19.3,-7.1 2.5,-3 3.8,-6.7 3.4,-10.5 z M 384,166.4 243.2,25.6 v 76.8 c 0,35.3 28.7,64 64,64 z"
   class="st0"
   style="fill:#0655bb;fill-opacity:1" />
<path
   id="path834"
   d="m 292.00985,164.08223 c -17.7825,-4.3044 -33.69888,-17.45548 -41.94123,-34.65437 -6.03768,-12.59852 -6.33381,-15.59746 -6.03822,-61.148135 l 0.26403,-40.686812 68.99382,68.999081 68.99383,68.999076 -42.34699,-0.0793 c -33.09158,-0.0619 -43.56617,-0.37441 -47.92524,-1.42956 z"
   style="fill:#ffffff;stroke:#ffffff;stroke-width:0.999999;paint-order:fill markers stroke" /><rect
   style="fill:#0655bb;fill-opacity:1;paint-order:fill markers stroke"
   id="rect868"
   width="207.46469"
   height="235.0632"
   x="87.553909"
   y="223.64313" /><path
   id="path866"
   d="m 109.22145,414.02968 c -4.2248,-0.85301 -4.90928,-1.90393 -11.863349,-18.21447 l -6.14333,-14.40901 56.668039,-0.11252 c 31.1674,-0.0619 82.16861,-0.0619 113.33601,0 l 56.66801,0.11252 -6.14333,14.40901 c -6.16512,14.46011 -7.09969,16.13319 -9.86806,17.66568 -1.22696,0.67921 -8.69322,0.74123 -96.21615,0.79923 -52.18729,0.0346 -95.58432,-0.0781 -96.43784,-0.25044 z m 20.4112,-42.85978 c 1.33291,-1.36231 3.32137,-3.10816 4.41877,-3.87968 l 1.99526,-1.40274 20.06352,-0.12793 20.06349,-0.12795 v -24.10109 c 0,-28.48716 0.5041,-25.41532 -6.45123,-39.3139 -2.51793,-5.03151 -5.05413,-10.32226 -5.63597,-11.75721 -6.0408,-14.89783 -5.18167,-30.89153 2.30937,-42.99118 7.7691,-12.5488 19.4793,-19.96251 33.83188,-21.41888 17.14575,-1.7398 33.13022,6.3201 42.47803,21.41888 7.44918,12.03207 8.35411,28.1389 2.40287,42.76948 -0.63327,1.55688 -3.21154,6.9474 -5.72948,11.97891 -6.95531,13.89858 -6.45124,10.82674 -6.45124,39.3139 v 24.10109 l 20.0635,0.12795 20.0635,0.12793 1.99528,1.40274 c 1.09739,0.77152 3.08584,2.51737 4.41877,3.87968 l 2.42352,2.47695 h -77.34168 -77.34167 z"
   style="fill:#ffffff;fill-opacity:1;stroke-width:1" /></svg>
