<?xml version="1.0" encoding="UTF-8" standalone="no"?>
<svg
   xmlns:dc="http://purl.org/dc/elements/1.1/"
   xmlns:cc="http://creativecommons.org/ns#"
   xmlns:rdf="http://www.w3.org/1999/02/22-rdf-syntax-ns#"
   xmlns:svg="http://www.w3.org/2000/svg"
   xmlns="http://www.w3.org/2000/svg"
   xmlns:sodipodi="http://sodipodi.sourceforge.net/DTD/sodipodi-0.dtd"
   xmlns:inkscape="http://www.inkscape.org/namespaces/inkscape"
   inkscape:version="1.0 (4035a4fb49, 2020-05-01)"
   sodipodi:docname="trash_v2.svg"
   xml:space="preserve"
   style="enable-background:new 0 0 64.125 64.125;"
   viewBox="0 0 64.125 64.125"
   height="64.125px"
   width="64.125px"
   y="0px"
   x="0px"
   id="Capa_1"
   version="1.1"><metadata
   id="metadata41"><rdf:RDF><cc:Work
       rdf:about=""><dc:format>image/svg+xml</dc:format><dc:type
         rdf:resource="http://purl.org/dc/dcmitype/StillImage" /><dc:title></dc:title></cc:Work></rdf:RDF></metadata><defs
   id="defs39">
	
</defs><sodipodi:namedview
   inkscape:current-layer="Capa_1"
   inkscape:window-maximized="1"
   inkscape:window-y="-8"
   inkscape:window-x="-8"
   inkscape:cy="35.080147"
   inkscape:cx="32.0625"
   inkscape:zoom="13.255361"
   showgrid="false"
   id="namedview37"
   inkscape:window-height="1017"
   inkscape:window-width="1920"
   inkscape:pageshadow="2"
   inkscape:pageopacity="0"
   guidetolerance="10"
   gridtolerance="10"
   objecttolerance="10"
   borderopacity="1"
   bordercolor="#666666"
   pagecolor="#ffffff" />
<path
   style="fill:#ffffff;fill-opacity:1"
   d="M 56.228,9.125 H 43.188 V 4.836 C 43.188,2.17 41.019,0 38.353,0 H 25.773 C 23.107,0 20.938,2.17 20.938,4.836 V 9.125 H 7.897 c -2.666,0 -4.835,2.17 -4.835,4.836 v 6.289 c 0,1.105 0.896,2 2,2 h 5.25 v 37.041 c 0,2.666 2.169,4.834 4.835,4.834 h 34.58 c 2.666,0 4.835,-2.168 4.835,-4.834 V 22.25 h 4.5 c 1.104,0 2,-0.895 2,-2 v -6.289 c 0,-2.666 -2.168,-4.836 -4.834,-4.836 z M 24.938,4.836 C 24.938,4.375 25.312,4 25.772,4 h 12.58 c 0.46,0 0.835,0.375 0.835,0.836 V 9.125 H 24.937 V 4.836 Z m 25.624,54.455 c 0,0.461 -0.375,0.834 -0.835,0.834 h -34.58 c -0.46,0 -0.835,-0.373 -0.835,-0.834 V 22.25 h 36.25 z m 6.5,-41.041 h -4.5 -40.25 -5.25 v -4.289 c 0,-0.461 0.375,-0.836 0.835,-0.836 h 15.04 18.25 15.04 c 0.46,0 0.835,0.375 0.835,0.836 z"
   id="path2" />
<g
   id="g6">
</g>
<g
   id="g8">
</g>
<g
   id="g10">
</g>
<g
   id="g12">
</g>
<g
   id="g14">
</g>
<g
   id="g16">
</g>
<g
   id="g18">
</g>
<g
   id="g20">
</g>
<g
   id="g22">
</g>
<g
   id="g24">
</g>
<g
   id="g26">
</g>
<g
   id="g28">
</g>
<g
   id="g30">
</g>
<g
   id="g32">
</g>
<g
   id="g34">
</g>
</svg>
