<?xml version="1.0" encoding="UTF-8" standalone="no"?>
<svg
   xmlns:dc="http://purl.org/dc/elements/1.1/"
   xmlns:cc="http://creativecommons.org/ns#"
   xmlns:rdf="http://www.w3.org/1999/02/22-rdf-syntax-ns#"
   xmlns:svg="http://www.w3.org/2000/svg"
   xmlns="http://www.w3.org/2000/svg"
   xmlns:sodipodi="http://sodipodi.sourceforge.net/DTD/sodipodi-0.dtd"
   xmlns:inkscape="http://www.inkscape.org/namespaces/inkscape"
   inkscape:version="1.0 (4035a4fb49, 2020-05-01)"
   height="64"
   width="64"
   sodipodi:docname="11536872261558965374.svg"
   id="svg16"
   version="1.1"
   viewBox="0 0 64 64.000002">
  <metadata
     id="metadata20">
    <rdf:RDF>
      <cc:Work
         rdf:about="">
        <dc:format>image/svg+xml</dc:format>
        <dc:type
           rdf:resource="http://purl.org/dc/dcmitype/StillImage" />
        <dc:title>Asset 25</dc:title>
      </cc:Work>
    </rdf:RDF>
  </metadata>
  <sodipodi:namedview
     inkscape:current-layer="svg16"
     inkscape:window-maximized="1"
     inkscape:window-y="-8"
     inkscape:window-x="-8"
     inkscape:cy="36.521812"
     inkscape:cx="32"
     inkscape:zoom="9.1699338"
     showgrid="false"
     id="namedview18"
     inkscape:window-height="705"
     inkscape:window-width="1366"
     inkscape:pageshadow="2"
     inkscape:pageopacity="0"
     guidetolerance="10"
     gridtolerance="10"
     objecttolerance="10"
     borderopacity="1"
     bordercolor="#666666"
     pagecolor="#ffffff" />
  <defs
     id="defs4">
    <style
       id="style2">.cls-1{fill:#35353d;}</style>
  </defs>
  <title
     id="title6">Asset 25</title>
  <g
     style="fill:#ffa602;fill-opacity:1"
     data-name="Layer 2"
     id="Layer_2">
    <g
       style="fill:#ffa602;fill-opacity:1"
       data-name="Layer 1"
       id="Layer_1-2">
      <path
         style="fill:#ffa602;fill-opacity:1"
         id="path8"
         d="M 61.33,5.33 H 48 V 2.67 A 2.66,2.66 0 0 0 45.33,0 H 18.67 A 2.66,2.66 0 0 0 16,2.67 V 5.33 H 2.67 a 2.67,2.67 0 0 0 0,5.34 H 8 v 40 a 8,8 0 0 0 8,8 h 32 a 8,8 0 0 0 8,-8 v -40 h 5.33 a 2.67,2.67 0 1 0 0,-5.34 z M 50.67,50.67 A 2.67,2.67 0 0 1 48,53.33 H 16 a 2.67,2.67 0 0 1 -2.67,-2.66 v -40 h 37.34 z"
         class="cls-1" />
      <path
         style="fill:#ffa602;fill-opacity:1"
         id="path10"
         d="m 24,45.33 a 2.67,2.67 0 0 0 2.67,-2.66 V 21.33 a 2.67,2.67 0 0 0 -5.34,0 V 42.67 A 2.67,2.67 0 0 0 24,45.33 Z"
         class="cls-1" />
      <path
         style="fill:#ffa602;fill-opacity:1"
         id="path12"
         d="m 40,45.33 a 2.67,2.67 0 0 0 2.67,-2.66 V 21.33 a 2.67,2.67 0 0 0 -5.34,0 V 42.67 A 2.67,2.67 0 0 0 40,45.33 Z"
         class="cls-1" />
    </g>
  </g>
</svg>
