<?xml version="1.0" encoding="UTF-8" standalone="no"?>
<svg
   xmlns:dc="http://purl.org/dc/elements/1.1/"
   xmlns:cc="http://creativecommons.org/ns#"
   xmlns:rdf="http://www.w3.org/1999/02/22-rdf-syntax-ns#"
   xmlns:svg="http://www.w3.org/2000/svg"
   xmlns="http://www.w3.org/2000/svg"
   xmlns:sodipodi="http://sodipodi.sourceforge.net/DTD/sodipodi-0.dtd"
   xmlns:inkscape="http://www.inkscape.org/namespaces/inkscape"
   inkscape:export-ydpi="96"
   inkscape:export-xdpi="96"
   inkscape:export-filename="C:\Users\etamburini\Desktop\icone Barlo\link.png"
   inkscape:version="1.0 (4035a4fb49, 2020-05-01)"
   sodipodi:docname="url.svg"
   xml:space="preserve"
   viewBox="0 0 506.58967 571.77466"
   y="0px"
   x="0px"
   id="Layer_1"
   version="1.1"
   width="506.58966"
   height="571.77466"><metadata
   id="metadata13"><rdf:RDF><cc:Work
       rdf:about=""><dc:format>image/svg+xml</dc:format><dc:type
         rdf:resource="http://purl.org/dc/dcmitype/StillImage" /><dc:title>font-glyph</dc:title></cc:Work></rdf:RDF></metadata><defs
   id="defs11" /><sodipodi:namedview
   inkscape:current-layer="Layer_1"
   inkscape:window-maximized="1"
   inkscape:window-y="-8"
   inkscape:window-x="-8"
   inkscape:cy="332.13383"
   inkscape:cx="204.8"
   inkscape:zoom="1.0507812"
   showgrid="false"
   id="namedview9"
   inkscape:window-height="1017"
   inkscape:window-width="1920"
   inkscape:pageshadow="2"
   inkscape:pageopacity="0"
   guidetolerance="10"
   gridtolerance="10"
   objecttolerance="10"
   borderopacity="1"
   bordercolor="#666666"
   pagecolor="#ffffff"
   inkscape:document-rotation="0"
   inkscape:lockguides="true" />
<style
   id="style2"
   type="text/css">
	.st0{fill:#002D62;}
</style>
<title
   id="title4">font-glyph</title>
<path
   style="fill:#0066cc;fill-opacity:1"
   id="path6"
   d="M 256.1,0 H 64 C 28.7,0 0,28.7 0,64 v 384 c 0,35.3 28.7,64 64,64 h 281.6 c 35.3,0 64,-28.7 64,-64 V 153.6 Z m 25.5,294.4 h -12.8 c 0,0 0,-25.6 -51.2,-25.6 v 102.4 c 0,0 0,0.7 0.1,1.8 0.4,7.9 3.3,13.2 7,16.7 3.5,3.8 8.8,6.6 16.7,7 1.1,0.1 1.8,0.1 1.8,0.1 H 256 v 12.8 H 153.6 v -12.8 h 12.8 c 0,0 0.7,0 1.8,-0.1 7.9,-0.4 13.2,-3.3 16.7,-7 3.8,-3.5 6.6,-8.8 7,-16.7 0.1,-1.1 0.1,-1.8 0.1,-1.8 V 268.8 c -51.2,0 -51.2,25.6 -51.2,25.6 H 128 V 256 h 153.6 z m 25.6,-128 c -35.3,0 -64,-28.7 -64,-64 V 25.6 L 384,166.4 Z"
   class="st0" />
<rect
   style="fill:#0066cc;fill-opacity:1"
   id="rect842"
   width="223.64313"
   height="200.80298"
   x="88.695923"
   y="241.72491" /><g
   id="g12"
   transform="matrix(15.629868,0,0,15.778573,394.82777,150.21287)"
   fill="#7f8c8d"
   style="fill:#ffffff;fill-opacity:1"><path
     id="path10"
     d="m -7.2222,13.806 c 0,-0.209 -0.0729,-0.386 -0.2187,-0.532 l -1.625,-1.625 c -0.1459,-0.145 -0.323,-0.218 -0.5313,-0.218 -0.2188,0 -0.4058,0.083 -0.5628,0.25 0.016,0.015 0.065,0.065 0.149,0.148 0.0831,0.078 0.1378,0.133 0.1638,0.164 0.0312,0.031 0.0703,0.081 0.1172,0.149 0.0521,0.067 0.0859,0.135 0.1016,0.203 0.0208,0.062 0.0312,0.133 0.0312,0.211 0,0.208 -0.0729,0.385 -0.2187,0.531 -0.1459,0.146 -0.3231,0.219 -0.5311,0.219 -0.078,0 -0.151,-0.008 -0.219,-0.024 -0.062,-0.021 -0.128,-0.054 -0.195,-0.101 -0.068,-0.052 -0.117,-0.091 -0.149,-0.117 -0.031,-0.032 -0.088,-0.089 -0.172,-0.172 -0.078,-0.084 -0.125,-0.133 -0.14,-0.149 -0.172,0.162 -0.258,0.352 -0.258,0.571 0,0.208 0.073,0.385 0.219,0.531 l 1.6091,1.617 c 0.1406,0.141 0.3177,0.211 0.5313,0.211 0.2083,0 0.3854,-0.068 0.5312,-0.203 l 1.1485,-1.141 c 0.1458,-0.146 0.2187,-0.32 0.2187,-0.523 M -12.714,8.2979 c 0,-0.2083 -0.073,-0.3854 -0.219,-0.5312 l -1.61,-1.6172 c -0.145,-0.1459 -0.322,-0.2188 -0.531,-0.2188 -0.203,0 -0.38,0.0703 -0.531,0.211 l -1.148,1.1406 c -0.146,0.1458 -0.219,0.3203 -0.219,0.5234 0,0.2084 0.073,0.3854 0.219,0.5313 l 1.625,1.625 c 0.14,0.141 0.317,0.211 0.531,0.211 0.219,0 0.406,-0.081 0.562,-0.2423 C -14.05,9.9151 -14.1,9.8682 -14.183,9.7901 -14.266,9.7068 -14.324,9.6495 -14.355,9.6182 -14.381,9.587 -14.42,9.5375 -14.472,9.4698 -14.519,9.4021 -14.553,9.337 -14.574,9.2745 c -0.015,-0.0677 -0.023,-0.1406 -0.023,-0.2188 0,-0.2083 0.073,-0.3854 0.219,-0.5312 0.145,-0.1459 0.322,-0.2188 0.531,-0.2188 0.078,0 0.148,0.0104 0.211,0.0313 0.067,0.0156 0.135,0.0495 0.203,0.1015 0.068,0.0469 0.117,0.086 0.148,0.1172 0.032,0.0261 0.086,0.0808 0.164,0.1641 0.084,0.0833 0.133,0.1328 0.149,0.1484 0.172,-0.1614 0.258,-0.3515 0.258,-0.5703 m 6.3356,3.9141 c 0.4374,0.437 0.6562,0.969 0.6562,1.594 0,0.625 -0.2214,1.153 -0.6641,1.586 l -1.1484,1.14 c -0.4323,0.433 -0.9609,0.649 -1.5859,0.649 -0.6303,0 -1.1614,-0.222 -1.5934,-0.664 l -1.61,-1.618 c -0.432,-0.432 -0.648,-0.96 -0.648,-1.585 0,-0.641 0.229,-1.185 0.687,-1.633 l -0.687,-0.688 c -0.448,0.459 -0.99,0.688 -1.625,0.688 -0.625,0 -1.156,-0.219 -1.594,-0.657 l -1.625,-1.6245 c -0.437,-0.4375 -0.656,-0.9688 -0.656,-1.5938 0,-0.625 0.221,-1.1536 0.664,-1.5859 l 1.148,-1.1406 c 0.433,-0.4323 0.961,-0.6485 1.586,-0.6485 0.63,0 1.162,0.2214 1.594,0.6641 l 1.609,1.6172 c 0.433,0.4323 0.649,0.9609 0.649,1.5859 0,0.6406 -0.229,1.1849 -0.688,1.6328 l 0.688,0.6873 c 0.448,-0.458 0.989,-0.6873 1.6248,-0.6873 0.625,0 1.1562,0.2183 1.5938,0.6563 l 1.625,1.625"
     fill="#7f8c8d"
     style="fill:#ffffff;fill-opacity:1" /></g><path
   id="path835"
   d="m 242.39108,419.36368 c -7.61002,-2.51767 -10.72238,-5.00375 -26.87356,-21.46592 -20.22436,-20.61381 -22.60962,-24.53693 -22.61194,-37.1907 -0.002,-9.35322 1.75765,-14.94831 6.76203,-21.5044 1.77597,-2.32665 3.22904,-4.56239 3.22904,-4.96831 0,-1.10719 -9.89948,-10.66558 -11.04619,-10.66558 -0.54658,0 -1.959,1.02744 -3.13873,2.2832 -1.17972,1.25576 -4.78746,3.50409 -8.01719,4.99628 -5.11313,2.36237 -6.97944,2.70803 -14.43729,2.67394 -13.11919,-0.06 -15.46232,-1.51401 -36.29527,-22.52324 -21.43328,-21.61464 -22.70667,-23.71154 -22.70772,-37.393 -0.001,-13.38194 1.61337,-16.32046 18.33589,-33.3749 16.64678,-16.97719 20.16451,-18.96711 33.52955,-18.96711 14.07309,0 16.52316,1.47483 36.75137,22.12265 20.35079,20.77296 22.72437,24.6721 22.72669,37.33386 0.002,9.35322 -1.75764,14.94831 -6.76202,21.5044 -1.77598,2.32666 -3.22905,4.56239 -3.22905,4.96831 0,1.1355 9.91428,10.66558 11.09556,10.66558 0.57372,0 1.6246,-0.70063 2.33529,-1.55695 4.55225,-5.48513 16.2605,-9.41098 25.70534,-8.61916 10.98778,0.92118 14.49763,3.26938 33.67486,22.52946 21.4019,21.49439 22.82907,23.84537 22.83085,37.60947 0.002,13.39582 -1.60815,16.31965 -18.39106,33.40132 -15.95628,16.24034 -20.00334,18.6615 -31.94337,19.11021 -4.63709,0.17426 -9.23549,-0.21259 -11.52308,-0.96941 z m 27.29394,-33.6413 c 17.43306,-17.43306 17.36548,-18.39005 -2.72486,-38.58958 -7.75537,-7.79752 -15.2571,-14.79044 -16.67052,-15.53982 -3.60633,-1.91203 -8.30288,-1.68909 -12.00832,0.57004 l -3.15808,1.92541 4.23177,4.70675 c 2.32746,2.5887 4.45646,5.88223 4.73111,7.31894 1.24429,6.50907 -4.61065,13.61822 -11.21565,13.61822 -3.05048,0 -11.89203,-5.69285 -11.89203,-7.65698 0,-0.49943 -0.63138,-0.90807 -1.40307,-0.90807 -2.13778,0 -4.30697,5.08786 -4.30697,10.10207 v 4.48656 l 16.07504,16.14809 16.07503,16.14809 5.4177,-0.44927 5.41768,-0.44928 z m -96.39546,-76.49896 3.22562,-1.96649 -3.95143,-4.02621 c -2.17328,-2.21441 -4.35315,-5.42696 -4.84415,-7.13899 -1.29497,-4.51528 0.62927,-9.52695 4.72352,-12.30241 4.84368,-3.28349 9.53436,-2.45547 14.67601,2.59068 2.17451,2.13412 4.46177,3.88022 5.08279,3.88022 1.8939,0 4.03302,-5.35816 4.03302,-10.10207 v -4.48656 l -15.94918,-16.02167 -15.94919,-16.02167 h -5.15118 -5.15118 L 142.21913,255.341 c -17.83887,17.68435 -17.78947,18.71366 1.8481,38.5116 7.49373,7.55493 14.90972,14.54648 16.47998,15.53677 3.72785,2.351 8.72047,2.28598 12.74235,-0.16595 z"
   style="fill:#ffffff;stroke:#ffffff;stroke-width:0.999999;paint-order:fill markers stroke" /><path
   id="path837"
   d="m 292.00985,164.08223 c -17.7825,-4.30441 -33.69888,-17.45549 -41.94123,-34.65438 -6.03768,-12.59851 -6.33381,-15.59746 -6.03822,-61.148128 l 0.26403,-40.686811 68.99382,68.99908 68.99383,68.999079 -42.34699,-0.0793 c -33.09158,-0.062 -43.56617,-0.37441 -47.92524,-1.42956 z"
   style="fill:#ffffff;stroke:#ffffff;stroke-width:0.999999;paint-order:fill markers stroke" /></svg>
