<?xml version="1.0" encoding="UTF-8" standalone="no"?>
<svg
   xmlns:dc="http://purl.org/dc/elements/1.1/"
   xmlns:cc="http://creativecommons.org/ns#"
   xmlns:rdf="http://www.w3.org/1999/02/22-rdf-syntax-ns#"
   xmlns:svg="http://www.w3.org/2000/svg"
   xmlns="http://www.w3.org/2000/svg"
   xmlns:sodipodi="http://sodipodi.sourceforge.net/DTD/sodipodi-0.dtd"
   xmlns:inkscape="http://www.inkscape.org/namespaces/inkscape"
   inkscape:export-ydpi="96"
   inkscape:export-xdpi="96"
   inkscape:export-filename="C:\Users\etamburini\Desktop\icone Barlo\link_letto.png"
   height="571.77466"
   width="506.58966"
   inkscape:version="1.0 (4035a4fb49, 2020-05-01)"
   sodipodi:docname="url_seen.svg"
   xml:space="preserve"
   viewBox="0 0 506.58966 571.77466"
   y="0px"
   x="0px"
   id="Layer_1"
   version="1.1"><metadata
   id="metadata13"><rdf:RDF><cc:Work
       rdf:about=""><dc:format>image/svg+xml</dc:format><dc:type
         rdf:resource="http://purl.org/dc/dcmitype/StillImage" /><dc:title>font-glyph</dc:title></cc:Work></rdf:RDF></metadata><defs
   id="defs11" /><sodipodi:namedview
   inkscape:current-layer="Layer_1"
   inkscape:window-maximized="1"
   inkscape:window-y="-8"
   inkscape:window-x="-8"
   inkscape:cy="294.06692"
   inkscape:cx="292.16358"
   inkscape:zoom="1.0507812"
   showgrid="false"
   id="namedview9"
   inkscape:window-height="1017"
   inkscape:window-width="1920"
   inkscape:pageshadow="2"
   inkscape:pageopacity="0"
   guidetolerance="10"
   gridtolerance="10"
   objecttolerance="10"
   borderopacity="1"
   bordercolor="#666666"
   pagecolor="#ffffff"
   inkscape:document-rotation="0"
   inkscape:lockguides="true" />
<style
   id="style2"
   type="text/css">
	.st0{fill:#002D62;}
</style>
<title
   id="title4">font-glyph</title>
<path
   style="fill:#0066cc;fill-opacity:1"
   id="path6"
   d="M 256.1,0 H 64 C 28.7,0 0,28.7 0,64 v 384 c 0,35.3 28.7,64 64,64 h 281.6 c 35.3,0 64,-28.7 64,-64 V 153.6 Z m 25.5,294.4 h -12.8 c 0,0 0,-25.6 -51.2,-25.6 v 102.4 c 0,0 0,0.7 0.1,1.8 0.4,7.9 3.3,13.2 7,16.7 3.5,3.8 8.8,6.6 16.7,7 1.1,0.1 1.8,0.1 1.8,0.1 H 256 v 12.8 H 153.6 v -12.8 h 12.8 c 0,0 0.7,0 1.8,-0.1 7.9,-0.4 13.2,-3.3 16.7,-7 3.8,-3.5 6.6,-8.8 7,-16.7 0.1,-1.1 0.1,-1.8 0.1,-1.8 V 268.8 c -51.2,0 -51.2,25.6 -51.2,25.6 H 128 V 256 h 153.6 z m 25.6,-128 c -35.3,0 -64,-28.7 -64,-64 V 25.6 L 384,166.4 Z"
   class="st0" />
<rect
   style="fill:#0066cc;fill-opacity:1"
   id="rect842"
   width="223.64313"
   height="200.80298"
   x="93.263947"
   y="228.40149" /><g
   id="g12"
   transform="matrix(15.629868,0,0,15.778573,394.82792,150.21288)"
   fill="#7f8c8d"
   style="fill:#ffffff;fill-opacity:1"><path
     id="path10"
     d="m -7.2222,13.806 c 0,-0.209 -0.0729,-0.386 -0.2187,-0.532 l -1.625,-1.625 c -0.1459,-0.145 -0.323,-0.218 -0.5313,-0.218 -0.2188,0 -0.4058,0.083 -0.5628,0.25 0.016,0.015 0.065,0.065 0.149,0.148 0.0831,0.078 0.1378,0.133 0.1638,0.164 0.0312,0.031 0.0703,0.081 0.1172,0.149 0.0521,0.067 0.0859,0.135 0.1016,0.203 0.0208,0.062 0.0312,0.133 0.0312,0.211 0,0.208 -0.0729,0.385 -0.2187,0.531 -0.1459,0.146 -0.3231,0.219 -0.5311,0.219 -0.078,0 -0.151,-0.008 -0.219,-0.024 -0.062,-0.021 -0.128,-0.054 -0.195,-0.101 -0.068,-0.052 -0.117,-0.091 -0.149,-0.117 -0.031,-0.032 -0.088,-0.089 -0.172,-0.172 -0.078,-0.084 -0.125,-0.133 -0.14,-0.149 -0.172,0.162 -0.258,0.352 -0.258,0.571 0,0.208 0.073,0.385 0.219,0.531 l 1.6091,1.617 c 0.1406,0.141 0.3177,0.211 0.5313,0.211 0.2083,0 0.3854,-0.068 0.5312,-0.203 l 1.1485,-1.141 c 0.1458,-0.146 0.2187,-0.32 0.2187,-0.523 M -12.714,8.2979 c 0,-0.2083 -0.073,-0.3854 -0.219,-0.5312 l -1.61,-1.6172 c -0.145,-0.1459 -0.322,-0.2188 -0.531,-0.2188 -0.203,0 -0.38,0.0703 -0.531,0.211 l -1.148,1.1406 c -0.146,0.1458 -0.219,0.3203 -0.219,0.5234 0,0.2084 0.073,0.3854 0.219,0.5313 l 1.625,1.625 c 0.14,0.141 0.317,0.211 0.531,0.211 0.219,0 0.406,-0.081 0.562,-0.2423 C -14.05,9.9151 -14.1,9.8682 -14.183,9.7901 -14.266,9.7068 -14.324,9.6495 -14.355,9.6182 -14.381,9.587 -14.42,9.5375 -14.472,9.4698 -14.519,9.4021 -14.553,9.337 -14.574,9.2745 c -0.015,-0.0677 -0.023,-0.1406 -0.023,-0.2188 0,-0.2083 0.073,-0.3854 0.219,-0.5312 0.145,-0.1459 0.322,-0.2188 0.531,-0.2188 0.078,0 0.148,0.0104 0.211,0.0313 0.067,0.0156 0.135,0.0495 0.203,0.1015 0.068,0.0469 0.117,0.086 0.148,0.1172 0.032,0.0261 0.086,0.0808 0.164,0.1641 0.084,0.0833 0.133,0.1328 0.149,0.1484 0.172,-0.1614 0.258,-0.3515 0.258,-0.5703 m 6.3356,3.9141 c 0.4374,0.437 0.6562,0.969 0.6562,1.594 0,0.625 -0.2214,1.153 -0.6641,1.586 l -1.1484,1.14 c -0.4323,0.433 -0.9609,0.649 -1.5859,0.649 -0.6303,0 -1.1614,-0.222 -1.5934,-0.664 l -1.61,-1.618 c -0.432,-0.432 -0.648,-0.96 -0.648,-1.585 0,-0.641 0.229,-1.185 0.687,-1.633 l -0.687,-0.688 c -0.448,0.459 -0.99,0.688 -1.625,0.688 -0.625,0 -1.156,-0.219 -1.594,-0.657 l -1.625,-1.6245 c -0.437,-0.4375 -0.656,-0.9688 -0.656,-1.5938 0,-0.625 0.221,-1.1536 0.664,-1.5859 l 1.148,-1.1406 c 0.433,-0.4323 0.961,-0.6485 1.586,-0.6485 0.63,0 1.162,0.2214 1.594,0.6641 l 1.609,1.6172 c 0.433,0.4323 0.649,0.9609 0.649,1.5859 0,0.6406 -0.229,1.1849 -0.688,1.6328 l 0.688,0.6873 c 0.448,-0.458 0.989,-0.6873 1.6248,-0.6873 0.625,0 1.1562,0.2183 1.5938,0.6563 l 1.625,1.625"
     fill="#7f8c8d"
     style="fill:#ffffff;fill-opacity:1" /></g><path
   id="path2"
   style="clip-rule:evenodd;fill:#0d86ff;fill-opacity:1;fill-rule:evenodd;stroke:#ffffff;stroke-width:20;stroke-linejoin:round;stroke-miterlimit:1.41421;stroke-dasharray:none;stroke-opacity:1"
   d="m 409.12683,386.849 c -48.2375,0 -87.46283,39.22766 -87.46283,87.46283 0,48.2375 39.22533,87.46283 87.46283,87.46283 48.2375,0 87.46283,-39.22533 87.46283,-87.46283 0,-48.23517 -39.22533,-87.46283 -87.46283,-87.46283 z" /><g
   id="g6"
   style="clip-rule:evenodd;fill:#ffffff;fill-opacity:1;fill-rule:evenodd;stroke-width:4.28754;stroke-linejoin:round;stroke-miterlimit:1.41421;stroke-dasharray:none"
   transform="matrix(2.3323421,0,0,2.3323421,291.95696,328.00634)"><path
     id="path4"
     style="fill:#ffffff;fill-opacity:1;fill-rule:nonzero;stroke-width:4.28754;stroke-miterlimit:1.41421;stroke-dasharray:none"
     d="m 66.637,48.229 -20.8,19.8 -11.9,-11.9 -5.7,5.6 14.7,14.7 c 0.8,0.8 1.8,1.2 2.8,1.2 1,0 2,-0.4 2.8,-1.1 l 23.7,-22.5 z" /></g><path
   id="path838"
   d="m 242.03343,419.32499 c -6.79761,-2.22041 -9.82389,-4.71079 -27.53256,-22.65689 -19.79819,-20.06365 -21.50635,-22.90509 -21.63204,-35.98408 -0.0843,-8.77709 1.88959,-14.95086 6.88693,-21.53982 l 3.7054,-4.88555 -5.4013,-5.34493 c -2.97071,-2.93972 -5.65118,-5.34494 -5.95659,-5.34494 -0.30542,0 -2.22013,1.33627 -4.25493,2.9695 -6.58745,5.28738 -11.3272,6.86883 -20.82975,6.94995 -13.68485,0.11683 -16.48712,-1.57662 -37.40112,-22.60185 -20.82386,-20.93462 -22.49703,-23.70296 -22.53213,-37.28043 -0.0346,-13.40512 2.00624,-16.95816 19.81921,-34.50373 16.98305,-16.72811 19.00574,-17.83828 32.50066,-17.83828 13.70945,0 16.42928,1.65663 36.83046,22.4332 20.6114,20.99065 22.08772,23.46106 22.13909,37.04636 0.0302,7.97405 -0.28598,9.73383 -2.67892,14.91313 -1.49219,3.22973 -3.74052,6.83747 -4.99628,8.01719 -1.25576,1.17973 -2.2832,2.62025 -2.2832,3.20117 0,0.58091 2.36308,3.38993 5.25129,6.24226 3.85008,3.80226 5.58272,4.93628 6.49342,4.25001 10.52028,-7.92766 17.82628,-10.48653 27.601,-9.66706 11.45403,0.96027 15.06305,3.35889 34.12392,22.67941 20.83834,21.12221 22.1735,23.37675 22.1735,37.44196 0,14.03443 -1.80384,17.36452 -18.39066,33.95135 -15.65785,15.65785 -19.88382,18.10572 -32.048,18.56359 -4.62968,0.17426 -9.17082,-0.22216 -11.5874,-1.01152 z m 26.95033,-33.11827 c 18.41572,-18.20616 18.39308,-18.48006 -3.31764,-40.13863 -14.27345,-14.23917 -15.36813,-15.11883 -19.37694,-15.57067 -4.5691,-0.51501 -10.2743,1.62472 -10.2743,3.85335 0,0.66901 1.51013,2.68006 3.35584,4.469 6.54998,6.34848 6.24803,14.76003 -0.68147,18.98484 -5.18952,3.16396 -8.73345,2.5677 -13.996,-2.35479 -2.51809,-2.35539 -4.97693,-4.28253 -5.46407,-4.28253 -1.62218,0 -4.15111,5.48118 -4.15111,8.99707 0,1.90806 0.61313,4.62563 1.36251,6.03904 1.5626,2.94727 28.8374,30.17322 30.99437,30.93888 0.78513,0.2787 3.31646,0.54053 5.62518,0.58185 4.12176,0.0738 4.40966,-0.13446 15.92363,-11.51741 z m -95.88746,-76.98151 3.22268,-1.9647 -3.34808,-3.50386 c -4.20217,-4.39767 -5.47647,-6.87023 -5.47647,-10.6261 0,-6.87112 5.77611,-12.137 12.17413,-11.09874 1.9394,0.31472 5.26737,2.18459 8.02181,4.50716 4.21147,3.55116 4.85972,3.81695 6.15364,2.52304 0.79545,-0.79545 1.7507,-2.88546 2.12278,-4.64447 1.36397,-6.44807 0.0276,-8.65035 -14.20931,-23.41694 -16.3668,-16.97569 -17.4683,-17.76374 -23.95769,-17.14019 -4.76923,0.45826 -5.08131,0.68975 -16.6164,12.32562 -11.70576,11.80804 -11.75588,11.87775 -11.75588,16.35195 0,2.47134 0.61306,5.64978 1.36234,7.06319 1.52437,2.87548 27.54725,28.88386 30.51871,30.50169 3.02478,1.64687 8.2898,1.25487 11.78774,-0.87765 z"
   style="fill:#ffffff;stroke:#ffffff;stroke-width:0.999999;paint-order:fill markers stroke" /><path
   id="path840"
   d="m 292.16358,164.09601 c -17.36664,-4.54491 -34.24303,-18.19482 -41.6866,-33.71683 -6.5165,-13.58879 -6.93471,-17.56304 -6.63483,-63.05114 l 0.26195,-39.735153 68.99382,68.999095 68.99383,68.999098 -42.34699,-0.0626 c -33.63217,-0.0497 -43.42415,-0.34454 -47.58118,-1.43244 z"
   style="fill:#ffffff;stroke:#ffffff;stroke-width:0.999999;paint-order:fill markers stroke" /></svg>
