<?xml version="1.0" encoding="UTF-8" standalone="no"?>
<svg
   xmlns:dc="http://purl.org/dc/elements/1.1/"
   xmlns:cc="http://creativecommons.org/ns#"
   xmlns:rdf="http://www.w3.org/1999/02/22-rdf-syntax-ns#"
   xmlns:svg="http://www.w3.org/2000/svg"
   xmlns="http://www.w3.org/2000/svg"
   xmlns:sodipodi="http://sodipodi.sourceforge.net/DTD/sodipodi-0.dtd"
   xmlns:inkscape="http://www.inkscape.org/namespaces/inkscape"
   height="571.77466"
   width="506.58966"
   inkscape:export-ydpi="96"
   inkscape:export-xdpi="96"
   inkscape:export-filename="C:\Users\etamburini\Desktop\icone Barlo\video_letto.png"
   version="1.1"
   id="Layer_1"
   x="0px"
   y="0px"
   viewBox="0 0 506.58966 571.77466"
   xml:space="preserve"
   sodipodi:docname="video_seen.svg"
   inkscape:version="1.0 (4035a4fb49, 2020-05-01)"><metadata
   id="metadata13"><rdf:RDF><cc:Work
       rdf:about=""><dc:format>image/svg+xml</dc:format><dc:type
         rdf:resource="http://purl.org/dc/dcmitype/StillImage" /><dc:title>video-glyph</dc:title></cc:Work></rdf:RDF></metadata><defs
   id="defs11" /><sodipodi:namedview
   inkscape:document-rotation="0"
   pagecolor="#ffffff"
   bordercolor="#666666"
   borderopacity="1"
   objecttolerance="10"
   gridtolerance="10"
   guidetolerance="10"
   inkscape:pageopacity="0"
   inkscape:pageshadow="2"
   inkscape:window-width="1920"
   inkscape:window-height="1017"
   id="namedview9"
   showgrid="false"
   inkscape:zoom="1.0507812"
   inkscape:cx="335.75018"
   inkscape:cy="332.13383"
   inkscape:window-x="-8"
   inkscape:window-y="-8"
   inkscape:window-maximized="1"
   inkscape:current-layer="Layer_1" />
<style
   type="text/css"
   id="style2">
	.st0{fill:#1554E1;}
</style>
<title
   id="title4">video-glyph</title>
<path
   class="st0"
   d="M 275.2,268.8 H 134.4 c -3.5,0 -6.4,2.9 -6.4,6.4 v 115.2 c 0,3.5 2.9,6.4 6.4,6.4 h 140.8 c 3.5,0 6.4,-2.9 6.4,-6.4 V 275.2 c 0,-3.5 -2.9,-6.4 -6.4,-6.4 z m -48.1,69.3 -39.3,19.7 c -3,1.5 -6.6,0.2 -8,-2.8 -0.4,-0.8 -0.6,-1.7 -0.6,-2.6 v -39.3 c 0,-3.3 2.7,-6 6.1,-5.9 0.9,0 1.8,0.2 2.6,0.6 l 39.3,19.6 c 2.9,1.5 4.1,5.1 2.6,8.1 -0.7,1.2 -1.6,2.1 -2.7,2.6 z M 256.1,0 H 64 C 28.7,0 0,28.7 0,64 v 384 c 0,35.3 28.7,64 64,64 h 281.6 c 35.3,0 64,-28.7 64,-64 V 153.6 Z m 51.1,390.4 c 0,17.7 -14.3,32 -32,32 H 134.4 c -17.7,0 -32,-14.3 -32,-32 V 275.2 c 0,-17.7 14.3,-32 32,-32 h 140.8 c 17.7,0 32,14.3 32,32 z m 0,-224 c -35.3,0 -64,-28.7 -64,-64 V 25.6 L 384,166.4 Z"
   id="path6"
   style="fill:#00b592;fill-opacity:1" />
<path
   d="m 409.12683,386.849 c -48.2375,0 -87.46283,39.22766 -87.46283,87.46283 0,48.2375 39.22533,87.46283 87.46283,87.46283 48.2375,0 87.46283,-39.22533 87.46283,-87.46283 0,-48.23517 -39.22533,-87.46283 -87.46283,-87.46283 z"
   style="clip-rule:evenodd;fill:#00d9af;fill-opacity:1;fill-rule:evenodd;stroke:#ffffff;stroke-width:20;stroke-linejoin:round;stroke-miterlimit:1.41421;stroke-dasharray:none;stroke-opacity:1"
   id="path2" /><g
   transform="matrix(2.3323421,0,0,2.3323421,291.95696,328.00634)"
   style="clip-rule:evenodd;fill:#ffffff;fill-opacity:1;fill-rule:evenodd;stroke-width:4.28754;stroke-linejoin:round;stroke-miterlimit:1.41421;stroke-dasharray:none"
   id="g6"><path
     d="m 66.637,48.229 -20.8,19.8 -11.9,-11.9 -5.7,5.6 14.7,14.7 c 0.8,0.8 1.8,1.2 2.8,1.2 1,0 2,-0.4 2.8,-1.1 l 23.7,-22.5 z"
     style="fill:#ffffff;fill-opacity:1;fill-rule:nonzero;stroke-width:4.28754;stroke-miterlimit:1.41421;stroke-dasharray:none"
     id="path4" /></g><path
   id="path835"
   d="m 122.91477,419.61802 c -7.06244,-2.72836 -13.02866,-8.40155 -16.72071,-15.89943 l -3.12791,-6.35222 -0.29292,-60.92854 c -0.2051,-42.66039 0.0313,-62.64057 0.78852,-66.63858 1.94284,-10.25809 8.48834,-18.66986 18.06203,-23.2119 l 5.2342,-2.48326 h 78.03718 78.03717 l 4.48926,2.07395 c 6.69517,3.09304 13.38117,9.84942 16.56221,16.73652 l 2.74036,5.93302 v 63.76209 63.76208 l -2.21376,5.4831 c -2.68668,6.65451 -9.29239,13.70075 -15.86803,16.92629 l -4.75836,2.33411 -78.03718,0.19688 c -75.84084,0.19134 -78.17495,0.14366 -82.93206,-1.69411 z m 157.25296,-24.77369 c 1.74272,-1.92568 1.81293,-4.34318 1.81293,-62.41866 v -60.4154 l -2.24669,-1.81926 c -2.16829,-1.75577 -4.78531,-1.81926 -74.9875,-1.81926 h -72.74081 l -2.33592,2.33592 -2.33593,2.33592 v 59.10955 c 0,59.15863 0.13858,61.89831 3.23541,63.96612 0.57592,0.38455 34.06328,0.70574 74.41635,0.71376 l 73.36924,0.0146 1.81292,-2.00326 z"
   style="fill:#ffffff;stroke:#ffffff;stroke-width:0.999999;paint-order:fill markers stroke" /><path
   id="path837"
   d="m 181.1573,355.7139 c -1.23322,-1.76067 -1.48148,-5.66778 -1.48148,-23.31599 0,-19.93199 0.11392,-21.3148 1.90335,-23.10423 1.04684,-1.04684 2.51251,-1.90335 3.25705,-1.90335 0.74454,0 10.81626,4.7077 22.3816,10.46156 22.19569,11.04255 24.32451,12.6908 22.0002,17.03381 -1.20371,2.24915 -41.54121,22.9433 -44.72159,22.9433 -1.02172,0 -2.52432,-0.9518 -3.33913,-2.1151 z"
   style="fill:#ffffff;stroke:#ffffff;stroke-width:0.999999;paint-order:fill markers stroke" /><path
   id="path839"
   d="m 290.06988,163.36068 c -19.36955,-5.77595 -35.33528,-20.42377 -42.22422,-38.73878 -3.96149,-10.53204 -4.51471,-18.36904 -4.21234,-59.673056 l 0.28042,-38.307651 69.46968,69.474939 69.46968,69.474938 -42.82284,-0.051 c -41.4926,-0.0494 -43.04455,-0.11711 -49.96038,-2.1794 z"
   style="fill:#ffffff;stroke:#ffffff;stroke-width:0.999999;paint-order:fill markers stroke" /></svg>
